<svg width="598" height="131" viewBox="0 0 598 131" fill="none" xmlns="http://www.w3.org/2000/svg">
<rect x="0.5" y="0.5" width="597" height="130" rx="15.5" fill="#F2F3F7"/>
<path d="M307.458 43.2083C307.138 43.2083 306.831 43.3356 306.604 43.5622C306.377 43.7888 306.25 44.0962 306.25 44.4167V44.8758L304.462 43.0875C303.83 42.461 302.977 42.1095 302.087 42.1095C301.198 42.1095 300.344 42.461 299.713 43.0875L298.867 43.9333L295.87 40.9367C295.23 40.3272 294.38 39.9872 293.496 39.9872C292.612 39.9872 291.762 40.3272 291.122 40.9367L289.333 42.725V35.9583C289.333 35.6378 289.461 35.3305 289.687 35.1039C289.914 34.8773 290.221 34.75 290.542 34.75H299C299.32 34.75 299.628 34.6227 299.854 34.3961C300.081 34.1695 300.208 33.8621 300.208 33.5417C300.208 33.2212 300.081 32.9138 299.854 32.6872C299.628 32.4606 299.32 32.3333 299 32.3333H290.542C289.58 32.3333 288.658 32.7152 287.978 33.3951C287.299 34.0749 286.917 34.9969 286.917 35.9583V50.4583C286.917 51.4197 287.299 52.3418 287.978 53.0216C288.658 53.7014 289.58 54.0833 290.542 54.0833H305.042C306.003 54.0833 306.925 53.7014 307.605 53.0216C308.285 52.3418 308.667 51.4197 308.667 50.4583V44.4167C308.667 44.0962 308.539 43.7888 308.313 43.5622C308.086 43.3356 307.779 43.2083 307.458 43.2083ZM290.542 51.6667C290.221 51.6667 289.914 51.5393 289.687 51.3127C289.461 51.0861 289.333 50.7788 289.333 50.4583V46.1446L292.837 42.6404C293.015 42.4712 293.251 42.3769 293.496 42.3769C293.741 42.3769 293.977 42.4712 294.155 42.6404L297.985 46.4708L303.181 51.6667H290.542ZM306.25 50.4583C306.248 50.6896 306.172 50.9142 306.032 51.0987L300.583 45.625L301.429 44.7792C301.515 44.6907 301.619 44.6205 301.733 44.5725C301.847 44.5246 301.97 44.4999 302.093 44.4999C302.217 44.4999 302.34 44.5246 302.454 44.5725C302.568 44.6205 302.671 44.6907 302.758 44.7792L306.25 48.2954V50.4583ZM311.941 32.6837L308.316 29.0587C308.201 28.9487 308.066 28.8625 307.917 28.805C307.623 28.6841 307.293 28.6841 306.999 28.805C306.851 28.8625 306.715 28.9487 306.6 29.0587L302.975 32.6837C302.863 32.7964 302.773 32.9301 302.712 33.0774C302.651 33.2246 302.62 33.3823 302.62 33.5417C302.62 33.8634 302.748 34.172 302.975 34.3996C303.203 34.6271 303.512 34.7549 303.833 34.7549C304.155 34.7549 304.464 34.6271 304.691 34.3996L306.25 32.8287V39.5833C306.25 39.9038 306.377 40.2111 306.604 40.4377C306.831 40.6643 307.138 40.7917 307.458 40.7917C307.779 40.7917 308.086 40.6643 308.313 40.4377C308.539 40.2111 308.667 39.9038 308.667 39.5833V32.8287L310.225 34.3996C310.338 34.5128 310.471 34.6027 310.619 34.6641C310.766 34.7254 310.924 34.757 311.083 34.757C311.243 34.757 311.401 34.7254 311.548 34.6641C311.695 34.6027 311.829 34.5128 311.941 34.3996C312.055 34.2872 312.144 34.1536 312.206 34.0063C312.267 33.8591 312.299 33.7012 312.299 33.5417C312.299 33.3821 312.267 33.2242 312.206 33.077C312.144 32.9297 312.055 32.7961 311.941 32.6837Z" fill="#E2E2EA"/>
<path d="M191.143 80.64C190.443 80.64 189.794 80.514 189.197 80.262C188.6 80.0007 188.077 79.6413 187.629 79.184C187.19 78.7267 186.85 78.1947 186.607 77.588C186.364 76.9813 186.243 76.3327 186.243 75.642C186.243 74.942 186.364 74.2887 186.607 73.682C186.85 73.0753 187.19 72.548 187.629 72.1C188.077 71.6427 188.595 71.288 189.183 71.036C189.78 70.7747 190.429 70.644 191.129 70.644C191.894 70.644 192.566 70.7747 193.145 71.036C193.724 71.2973 194.237 71.652 194.685 72.1L193.775 73.01C193.467 72.6647 193.089 72.394 192.641 72.198C192.202 72.002 191.698 71.904 191.129 71.904C190.616 71.904 190.144 71.9973 189.715 72.184C189.286 72.3613 188.912 72.618 188.595 72.954C188.278 73.29 188.03 73.6867 187.853 74.144C187.685 74.6013 187.601 75.1007 187.601 75.642C187.601 76.1833 187.685 76.6827 187.853 77.14C188.03 77.5973 188.278 77.994 188.595 78.33C188.912 78.666 189.286 78.9273 189.715 79.114C190.144 79.2913 190.616 79.38 191.129 79.38C191.736 79.38 192.263 79.282 192.711 79.086C193.159 78.8807 193.537 78.6053 193.845 78.26L194.755 79.156C194.307 79.6227 193.78 79.9867 193.173 80.248C192.576 80.5093 191.899 80.64 191.143 80.64ZM196.022 80.5V70.504H197.282V80.5H196.022ZM199.013 80.5V73.85H200.273V80.5H199.013ZM199.643 72.52C199.41 72.52 199.218 72.4453 199.069 72.296C198.92 72.1373 198.845 71.9413 198.845 71.708C198.845 71.484 198.92 71.2973 199.069 71.148C199.218 70.9893 199.41 70.91 199.643 70.91C199.876 70.91 200.068 70.9893 200.217 71.148C200.366 71.2973 200.441 71.484 200.441 71.708C200.441 71.9413 200.366 72.1373 200.217 72.296C200.068 72.4453 199.876 72.52 199.643 72.52ZM205.042 80.64C204.389 80.64 203.796 80.486 203.264 80.178C202.741 79.87 202.326 79.4547 202.018 78.932C201.719 78.4 201.57 77.812 201.57 77.168C201.57 76.5147 201.719 75.9267 202.018 75.404C202.326 74.8813 202.741 74.4707 203.264 74.172C203.796 73.864 204.389 73.71 205.042 73.71C205.555 73.71 206.031 73.808 206.47 74.004C206.909 74.1907 207.287 74.466 207.604 74.83L206.764 75.67C206.559 75.4273 206.307 75.2453 206.008 75.124C205.719 74.9933 205.397 74.928 205.042 74.928C204.622 74.928 204.249 75.026 203.922 75.222C203.595 75.4087 203.339 75.67 203.152 76.006C202.965 76.342 202.872 76.7293 202.872 77.168C202.872 77.6067 202.965 77.994 203.152 78.33C203.339 78.666 203.595 78.932 203.922 79.128C204.249 79.324 204.622 79.422 205.042 79.422C205.397 79.422 205.719 79.3613 206.008 79.24C206.307 79.1093 206.563 78.9227 206.778 78.68L207.604 79.52C207.296 79.8747 206.918 80.15 206.47 80.346C206.031 80.542 205.555 80.64 205.042 80.64ZM212.984 80.5L209.876 77.098L212.956 73.85H214.482L211.052 77.434L211.108 76.706L214.608 80.5H212.984ZM208.728 80.5V70.504H209.988V80.5H208.728ZM221.188 80.64C220.582 80.64 220.031 80.4907 219.536 80.192C219.042 79.884 218.65 79.4687 218.36 78.946C218.08 78.4233 217.94 77.8353 217.94 77.182C217.94 76.5287 218.08 75.9407 218.36 75.418C218.65 74.8953 219.037 74.48 219.522 74.172C220.017 73.864 220.572 73.71 221.188 73.71C221.692 73.71 222.14 73.8173 222.532 74.032C222.934 74.2373 223.256 74.5267 223.498 74.9C223.741 75.264 223.876 75.6887 223.904 76.174V78.176C223.876 78.652 223.741 79.0767 223.498 79.45C223.265 79.8233 222.948 80.1173 222.546 80.332C222.154 80.5373 221.702 80.64 221.188 80.64ZM221.398 79.45C222.024 79.45 222.528 79.24 222.91 78.82C223.293 78.3907 223.484 77.8447 223.484 77.182C223.484 76.7247 223.396 76.328 223.218 75.992C223.05 75.6467 222.808 75.3807 222.49 75.194C222.173 74.998 221.804 74.9 221.384 74.9C220.964 74.9 220.591 74.998 220.264 75.194C219.947 75.39 219.695 75.6607 219.508 76.006C219.331 76.342 219.242 76.7293 219.242 77.168C219.242 77.616 219.331 78.0127 219.508 78.358C219.695 78.694 219.952 78.96 220.278 79.156C220.605 79.352 220.978 79.45 221.398 79.45ZM223.4 80.5V78.708L223.638 77.084L223.4 75.474V73.85H224.674V80.5H223.4ZM231.087 80.5V76.622C231.087 76.118 230.928 75.7027 230.611 75.376C230.293 75.0493 229.883 74.886 229.379 74.886C229.043 74.886 228.744 74.9607 228.483 75.11C228.221 75.2593 228.016 75.4647 227.867 75.726C227.717 75.9873 227.643 76.286 227.643 76.622L227.125 76.328C227.125 75.824 227.237 75.376 227.461 74.984C227.685 74.592 227.997 74.284 228.399 74.06C228.8 73.8267 229.253 73.71 229.757 73.71C230.261 73.71 230.704 73.836 231.087 74.088C231.479 74.34 231.787 74.6713 232.011 75.082C232.235 75.4833 232.347 75.9127 232.347 76.37V80.5H231.087ZM226.383 80.5V73.85H227.643V80.5H226.383ZM236.741 80.64C236.125 80.64 235.574 80.4907 235.089 80.192C234.603 79.884 234.216 79.4687 233.927 78.946C233.647 78.4233 233.507 77.8353 233.507 77.182C233.507 76.5287 233.647 75.9407 233.927 75.418C234.216 74.8953 234.603 74.48 235.089 74.172C235.574 73.864 236.125 73.71 236.741 73.71C237.235 73.71 237.683 73.8173 238.085 74.032C238.486 74.2373 238.808 74.5267 239.051 74.9C239.303 75.264 239.443 75.6887 239.471 76.174V78.176C239.443 78.652 239.307 79.0767 239.065 79.45C238.822 79.8233 238.5 80.1173 238.099 80.332C237.697 80.5373 237.245 80.64 236.741 80.64ZM236.951 79.45C237.371 79.45 237.735 79.352 238.043 79.156C238.36 78.96 238.607 78.694 238.785 78.358C238.962 78.0127 239.051 77.6207 239.051 77.182C239.051 76.7247 238.957 76.328 238.771 75.992C238.593 75.656 238.346 75.39 238.029 75.194C237.721 74.998 237.357 74.9 236.937 74.9C236.517 74.9 236.148 74.998 235.831 75.194C235.513 75.39 235.261 75.6607 235.075 76.006C234.897 76.342 234.809 76.7293 234.809 77.168C234.809 77.616 234.897 78.0127 235.075 78.358C235.261 78.694 235.513 78.96 235.831 79.156C236.157 79.352 236.531 79.45 236.951 79.45ZM240.241 80.5H238.967V78.708L239.205 77.084L238.967 75.474V70.504H240.241V80.5ZM247.661 80.64C246.896 80.64 246.243 80.5 245.701 80.22C245.16 79.94 244.679 79.534 244.259 79.002L245.155 78.106C245.463 78.5353 245.818 78.862 246.219 79.086C246.621 79.3007 247.115 79.408 247.703 79.408C248.282 79.408 248.744 79.282 249.089 79.03C249.444 78.778 249.621 78.4327 249.621 77.994C249.621 77.63 249.537 77.336 249.369 77.112C249.201 76.888 248.973 76.706 248.683 76.566C248.403 76.4167 248.095 76.286 247.759 76.174C247.423 76.0527 247.087 75.9267 246.751 75.796C246.415 75.656 246.107 75.488 245.827 75.292C245.547 75.0867 245.319 74.8207 245.141 74.494C244.973 74.1673 244.889 73.7567 244.889 73.262C244.889 72.7113 245.02 72.2447 245.281 71.862C245.552 71.47 245.916 71.1713 246.373 70.966C246.84 70.7513 247.363 70.644 247.941 70.644C248.576 70.644 249.145 70.77 249.649 71.022C250.153 71.2647 250.564 71.5867 250.881 71.988L249.985 72.884C249.696 72.548 249.383 72.296 249.047 72.128C248.721 71.96 248.343 71.876 247.913 71.876C247.391 71.876 246.975 71.9927 246.667 72.226C246.359 72.45 246.205 72.7673 246.205 73.178C246.205 73.5047 246.289 73.7707 246.457 73.976C246.635 74.172 246.863 74.34 247.143 74.48C247.423 74.62 247.731 74.7507 248.067 74.872C248.413 74.984 248.753 75.11 249.089 75.25C249.425 75.39 249.733 75.5673 250.013 75.782C250.293 75.9967 250.517 76.2767 250.685 76.622C250.863 76.958 250.951 77.3827 250.951 77.896C250.951 78.7547 250.653 79.4267 250.055 79.912C249.467 80.3973 248.669 80.64 247.661 80.64ZM255.359 80.64C254.696 80.64 254.099 80.4907 253.567 80.192C253.035 79.884 252.615 79.4687 252.307 78.946C251.999 78.4233 251.845 77.8307 251.845 77.168C251.845 76.5147 251.994 75.9267 252.293 75.404C252.601 74.8813 253.012 74.4707 253.525 74.172C254.048 73.864 254.631 73.71 255.275 73.71C255.891 73.71 256.432 73.85 256.899 74.13C257.375 74.41 257.744 74.7973 258.005 75.292C258.276 75.7867 258.411 76.3467 258.411 76.972C258.411 77.0653 258.406 77.168 258.397 77.28C258.388 77.3827 258.369 77.504 258.341 77.644H252.727V76.594H257.669L257.207 77C257.207 76.552 257.128 76.174 256.969 75.866C256.81 75.5487 256.586 75.306 256.297 75.138C256.008 74.9607 255.658 74.872 255.247 74.872C254.818 74.872 254.44 74.9653 254.113 75.152C253.786 75.3387 253.534 75.6 253.357 75.936C253.18 76.272 253.091 76.6687 253.091 77.126C253.091 77.5927 253.184 78.0033 253.371 78.358C253.558 78.7033 253.824 78.974 254.169 79.17C254.514 79.3567 254.911 79.45 255.359 79.45C255.732 79.45 256.073 79.3847 256.381 79.254C256.698 79.1233 256.969 78.9273 257.193 78.666L258.005 79.492C257.688 79.8653 257.296 80.15 256.829 80.346C256.372 80.542 255.882 80.64 255.359 80.64ZM259.659 80.5V70.504H260.919V80.5H259.659ZM265.717 80.64C265.054 80.64 264.457 80.4907 263.925 80.192C263.393 79.884 262.973 79.4687 262.665 78.946C262.357 78.4233 262.203 77.8307 262.203 77.168C262.203 76.5147 262.352 75.9267 262.651 75.404C262.959 74.8813 263.369 74.4707 263.883 74.172C264.405 73.864 264.989 73.71 265.633 73.71C266.249 73.71 266.79 73.85 267.257 74.13C267.733 74.41 268.101 74.7973 268.363 75.292C268.633 75.7867 268.769 76.3467 268.769 76.972C268.769 77.0653 268.764 77.168 268.755 77.28C268.745 77.3827 268.727 77.504 268.699 77.644H263.085V76.594H268.027L267.565 77C267.565 76.552 267.485 76.174 267.327 75.866C267.168 75.5487 266.944 75.306 266.655 75.138C266.365 74.9607 266.015 74.872 265.605 74.872C265.175 74.872 264.797 74.9653 264.471 75.152C264.144 75.3387 263.892 75.6 263.715 75.936C263.537 76.272 263.449 76.6687 263.449 77.126C263.449 77.5927 263.542 78.0033 263.729 78.358C263.915 78.7033 264.181 78.974 264.527 79.17C264.872 79.3567 265.269 79.45 265.717 79.45C266.09 79.45 266.431 79.3847 266.739 79.254C267.056 79.1233 267.327 78.9273 267.551 78.666L268.363 79.492C268.045 79.8653 267.653 80.15 267.187 80.346C266.729 80.542 266.239 80.64 265.717 80.64ZM273.054 80.64C272.401 80.64 271.808 80.486 271.276 80.178C270.754 79.87 270.338 79.4547 270.03 78.932C269.732 78.4 269.582 77.812 269.582 77.168C269.582 76.5147 269.732 75.9267 270.03 75.404C270.338 74.8813 270.754 74.4707 271.276 74.172C271.808 73.864 272.401 73.71 273.054 73.71C273.568 73.71 274.044 73.808 274.482 74.004C274.921 74.1907 275.299 74.466 275.616 74.83L274.776 75.67C274.571 75.4273 274.319 75.2453 274.02 75.124C273.731 74.9933 273.409 74.928 273.054 74.928C272.634 74.928 272.261 75.026 271.934 75.222C271.608 75.4087 271.351 75.67 271.164 76.006C270.978 76.342 270.884 76.7293 270.884 77.168C270.884 77.6067 270.978 77.994 271.164 78.33C271.351 78.666 271.608 78.932 271.934 79.128C272.261 79.324 272.634 79.422 273.054 79.422C273.409 79.422 273.731 79.3613 274.02 79.24C274.319 79.1093 274.576 78.9227 274.79 78.68L275.616 79.52C275.308 79.8747 274.93 80.15 274.482 80.346C274.044 80.542 273.568 80.64 273.054 80.64ZM277.68 80.5V71.064H278.94V80.5H277.68ZM276.042 74.998V73.85H280.578V74.998H276.042ZM287.51 80.64C286.857 80.64 286.269 80.486 285.746 80.178C285.224 79.87 284.808 79.4547 284.5 78.932C284.192 78.4 284.038 77.8073 284.038 77.154C284.038 76.51 284.192 75.9313 284.5 75.418C284.808 74.8953 285.224 74.48 285.746 74.172C286.269 73.864 286.857 73.71 287.51 73.71C288.154 73.71 288.738 73.864 289.26 74.172C289.792 74.4707 290.212 74.8813 290.52 75.404C290.828 75.9267 290.982 76.51 290.982 77.154C290.982 77.8073 290.828 78.4 290.52 78.932C290.212 79.4547 289.792 79.87 289.26 80.178C288.738 80.486 288.154 80.64 287.51 80.64ZM287.51 79.422C287.93 79.422 288.304 79.324 288.63 79.128C288.957 78.932 289.214 78.666 289.4 78.33C289.587 77.9847 289.68 77.5927 289.68 77.154C289.68 76.7247 289.582 76.342 289.386 76.006C289.2 75.67 288.943 75.4087 288.616 75.222C288.299 75.026 287.93 74.928 287.51 74.928C287.09 74.928 286.717 75.026 286.39 75.222C286.064 75.4087 285.807 75.67 285.62 76.006C285.434 76.342 285.34 76.7247 285.34 77.154C285.34 77.5927 285.434 77.9847 285.62 78.33C285.807 78.666 286.064 78.932 286.39 79.128C286.717 79.324 287.09 79.422 287.51 79.422ZM292.276 80.5V73.85H293.536V80.5H292.276ZM293.536 76.706L293.06 76.496C293.06 75.6467 293.256 74.97 293.648 74.466C294.04 73.962 294.605 73.71 295.342 73.71C295.678 73.71 295.981 73.7707 296.252 73.892C296.523 74.004 296.775 74.1953 297.008 74.466L296.182 75.32C296.042 75.1707 295.888 75.0633 295.72 74.998C295.552 74.9327 295.356 74.9 295.132 74.9C294.665 74.9 294.283 75.0493 293.984 75.348C293.685 75.6467 293.536 76.0993 293.536 76.706ZM301.893 80.5V79.296H304.595C305.314 79.296 305.944 79.142 306.485 78.834C307.027 78.5167 307.447 78.0827 307.745 77.532C308.053 76.9813 308.207 76.3467 308.207 75.628C308.207 74.9187 308.053 74.2887 307.745 73.738C307.437 73.1873 307.013 72.758 306.471 72.45C305.93 72.142 305.305 71.988 304.595 71.988H301.907V70.784H304.623C305.333 70.784 305.986 70.9053 306.583 71.148C307.19 71.3907 307.713 71.7313 308.151 72.17C308.599 72.6087 308.945 73.122 309.187 73.71C309.439 74.298 309.565 74.942 309.565 75.642C309.565 76.3327 309.439 76.9767 309.187 77.574C308.945 78.162 308.604 78.6753 308.165 79.114C307.727 79.5527 307.204 79.8933 306.597 80.136C306 80.3787 305.351 80.5 304.651 80.5H301.893ZM301.025 80.5V70.784H302.341V80.5H301.025ZM311.039 80.5V73.85H312.299V80.5H311.039ZM312.299 76.706L311.823 76.496C311.823 75.6467 312.019 74.97 312.411 74.466C312.803 73.962 313.367 73.71 314.105 73.71C314.441 73.71 314.744 73.7707 315.015 73.892C315.285 74.004 315.537 74.1953 315.771 74.466L314.945 75.32C314.805 75.1707 314.651 75.0633 314.483 74.998C314.315 74.9327 314.119 74.9 313.895 74.9C313.428 74.9 313.045 75.0493 312.747 75.348C312.448 75.6467 312.299 76.0993 312.299 76.706ZM319.141 80.64C318.534 80.64 317.984 80.4907 317.489 80.192C316.994 79.884 316.602 79.4687 316.313 78.946C316.033 78.4233 315.893 77.8353 315.893 77.182C315.893 76.5287 316.033 75.9407 316.313 75.418C316.602 74.8953 316.99 74.48 317.475 74.172C317.97 73.864 318.525 73.71 319.141 73.71C319.645 73.71 320.093 73.8173 320.485 74.032C320.886 74.2373 321.208 74.5267 321.451 74.9C321.694 75.264 321.829 75.6887 321.857 76.174V78.176C321.829 78.652 321.694 79.0767 321.451 79.45C321.218 79.8233 320.9 80.1173 320.499 80.332C320.107 80.5373 319.654 80.64 319.141 80.64ZM319.351 79.45C319.976 79.45 320.48 79.24 320.863 78.82C321.246 78.3907 321.437 77.8447 321.437 77.182C321.437 76.7247 321.348 76.328 321.171 75.992C321.003 75.6467 320.76 75.3807 320.443 75.194C320.126 74.998 319.757 74.9 319.337 74.9C318.917 74.9 318.544 74.998 318.217 75.194C317.9 75.39 317.648 75.6607 317.461 76.006C317.284 76.342 317.195 76.7293 317.195 77.168C317.195 77.616 317.284 78.0127 317.461 78.358C317.648 78.694 317.904 78.96 318.231 79.156C318.558 79.352 318.931 79.45 319.351 79.45ZM321.353 80.5V78.708L321.591 77.084L321.353 75.474V73.85H322.627V80.5H321.353ZM327.094 83.426C326.412 83.426 325.806 83.3 325.274 83.048C324.751 82.796 324.331 82.4413 324.014 81.984L324.826 81.158C325.096 81.5033 325.418 81.7647 325.792 81.942C326.165 82.1287 326.608 82.222 327.122 82.222C327.803 82.222 328.34 82.04 328.732 81.676C329.133 81.3213 329.334 80.8407 329.334 80.234V78.582L329.558 77.084L329.334 75.6V73.85H330.594V80.234C330.594 80.8687 330.444 81.424 330.146 81.9C329.856 82.376 329.446 82.7493 328.914 83.02C328.391 83.2907 327.784 83.426 327.094 83.426ZM327.094 80.388C326.487 80.388 325.941 80.2433 325.456 79.954C324.98 79.6647 324.602 79.268 324.322 78.764C324.042 78.2507 323.902 77.6767 323.902 77.042C323.902 76.4073 324.042 75.8427 324.322 75.348C324.602 74.844 324.98 74.4473 325.456 74.158C325.941 73.8593 326.487 73.71 327.094 73.71C327.616 73.71 328.078 73.8127 328.48 74.018C328.881 74.2233 329.198 74.5127 329.432 74.886C329.674 75.25 329.805 75.6793 329.824 76.174V77.938C329.796 78.4233 329.66 78.8527 329.418 79.226C329.184 79.59 328.867 79.8747 328.466 80.08C328.064 80.2853 327.607 80.388 327.094 80.388ZM327.346 79.198C327.756 79.198 328.116 79.1093 328.424 78.932C328.741 78.7547 328.984 78.5073 329.152 78.19C329.32 77.8633 329.404 77.4853 329.404 77.056C329.404 76.6267 329.315 76.2533 329.138 75.936C328.97 75.6093 328.732 75.3573 328.424 75.18C328.116 74.9933 327.752 74.9 327.332 74.9C326.912 74.9 326.543 74.9933 326.226 75.18C325.908 75.3573 325.656 75.6093 325.47 75.936C325.292 76.2533 325.204 76.622 325.204 77.042C325.204 77.462 325.292 77.8353 325.47 78.162C325.656 78.4887 325.908 78.7453 326.226 78.932C326.552 79.1093 326.926 79.198 327.346 79.198ZM337.931 80.64C337.324 80.64 336.774 80.4907 336.279 80.192C335.784 79.884 335.392 79.4687 335.103 78.946C334.823 78.4233 334.683 77.8353 334.683 77.182C334.683 76.5287 334.823 75.9407 335.103 75.418C335.392 74.8953 335.78 74.48 336.265 74.172C336.76 73.864 337.315 73.71 337.931 73.71C338.435 73.71 338.883 73.8173 339.275 74.032C339.676 74.2373 339.998 74.5267 340.241 74.9C340.484 75.264 340.619 75.6887 340.647 76.174V78.176C340.619 78.652 340.484 79.0767 340.241 79.45C340.008 79.8233 339.69 80.1173 339.289 80.332C338.897 80.5373 338.444 80.64 337.931 80.64ZM338.141 79.45C338.766 79.45 339.27 79.24 339.653 78.82C340.036 78.3907 340.227 77.8447 340.227 77.182C340.227 76.7247 340.138 76.328 339.961 75.992C339.793 75.6467 339.55 75.3807 339.233 75.194C338.916 74.998 338.547 74.9 338.127 74.9C337.707 74.9 337.334 74.998 337.007 75.194C336.69 75.39 336.438 75.6607 336.251 76.006C336.074 76.342 335.985 76.7293 335.985 77.168C335.985 77.616 336.074 78.0127 336.251 78.358C336.438 78.694 336.694 78.96 337.021 79.156C337.348 79.352 337.721 79.45 338.141 79.45ZM340.143 80.5V78.708L340.381 77.084L340.143 75.474V73.85H341.417V80.5H340.143ZM347.829 80.5V76.622C347.829 76.118 347.671 75.7027 347.353 75.376C347.036 75.0493 346.625 74.886 346.121 74.886C345.785 74.886 345.487 74.9607 345.225 75.11C344.964 75.2593 344.759 75.4647 344.609 75.726C344.46 75.9873 344.385 76.286 344.385 76.622L343.867 76.328C343.867 75.824 343.979 75.376 344.203 74.984C344.427 74.592 344.74 74.284 345.141 74.06C345.543 73.8267 345.995 73.71 346.499 73.71C347.003 73.71 347.447 73.836 347.829 74.088C348.221 74.34 348.529 74.6713 348.753 75.082C348.977 75.4833 349.089 75.9127 349.089 76.37V80.5H347.829ZM343.125 80.5V73.85H344.385V80.5H343.125ZM353.483 80.64C352.867 80.64 352.317 80.4907 351.831 80.192C351.346 79.884 350.959 79.4687 350.669 78.946C350.389 78.4233 350.249 77.8353 350.249 77.182C350.249 76.5287 350.389 75.9407 350.669 75.418C350.959 74.8953 351.346 74.48 351.831 74.172C352.317 73.864 352.867 73.71 353.483 73.71C353.978 73.71 354.426 73.8173 354.827 74.032C355.229 74.2373 355.551 74.5267 355.793 74.9C356.045 75.264 356.185 75.6887 356.213 76.174V78.176C356.185 78.652 356.05 79.0767 355.807 79.45C355.565 79.8233 355.243 80.1173 354.841 80.332C354.44 80.5373 353.987 80.64 353.483 80.64ZM353.693 79.45C354.113 79.45 354.477 79.352 354.785 79.156C355.103 78.96 355.35 78.694 355.527 78.358C355.705 78.0127 355.793 77.6207 355.793 77.182C355.793 76.7247 355.7 76.328 355.513 75.992C355.336 75.656 355.089 75.39 354.771 75.194C354.463 74.998 354.099 74.9 353.679 74.9C353.259 74.9 352.891 74.998 352.573 75.194C352.256 75.39 352.004 75.6607 351.817 76.006C351.64 76.342 351.551 76.7293 351.551 77.168C351.551 77.616 351.64 78.0127 351.817 78.358C352.004 78.694 352.256 78.96 352.573 79.156C352.9 79.352 353.273 79.45 353.693 79.45ZM356.983 80.5H355.709V78.708L355.947 77.084L355.709 75.474V70.504H356.983V80.5ZM364.292 80.64C363.676 80.64 363.125 80.4907 362.64 80.192C362.155 79.884 361.767 79.4687 361.478 78.946C361.198 78.4233 361.058 77.8353 361.058 77.182C361.058 76.5287 361.198 75.9407 361.478 75.418C361.767 74.8953 362.155 74.48 362.64 74.172C363.125 73.864 363.676 73.71 364.292 73.71C364.787 73.71 365.235 73.8173 365.636 74.032C366.037 74.2373 366.359 74.5267 366.602 74.9C366.854 75.264 366.994 75.6887 367.022 76.174V78.176C366.994 78.652 366.859 79.0767 366.616 79.45C366.373 79.8233 366.051 80.1173 365.65 80.332C365.249 80.5373 364.796 80.64 364.292 80.64ZM364.502 79.45C364.922 79.45 365.286 79.352 365.594 79.156C365.911 78.96 366.159 78.694 366.336 78.358C366.513 78.0127 366.602 77.6207 366.602 77.182C366.602 76.7247 366.509 76.328 366.322 75.992C366.145 75.656 365.897 75.39 365.58 75.194C365.272 74.998 364.908 74.9 364.488 74.9C364.068 74.9 363.699 74.998 363.382 75.194C363.065 75.39 362.813 75.6607 362.626 76.006C362.449 76.342 362.36 76.7293 362.36 77.168C362.36 77.616 362.449 78.0127 362.626 78.358C362.813 78.694 363.065 78.96 363.382 79.156C363.709 79.352 364.082 79.45 364.502 79.45ZM367.792 80.5H366.518V78.708L366.756 77.084L366.518 75.474V70.504H367.792V80.5ZM369.5 80.5V73.85H370.76V80.5H369.5ZM370.76 76.706L370.284 76.496C370.284 75.6467 370.48 74.97 370.872 74.466C371.264 73.962 371.829 73.71 372.566 73.71C372.902 73.71 373.206 73.7707 373.476 73.892C373.747 74.004 373.999 74.1953 374.232 74.466L373.406 75.32C373.266 75.1707 373.112 75.0633 372.944 74.998C372.776 74.9327 372.58 74.9 372.356 74.9C371.89 74.9 371.507 75.0493 371.208 75.348C370.91 75.6467 370.76 76.0993 370.76 76.706ZM377.813 80.64C377.159 80.64 376.571 80.486 376.049 80.178C375.526 79.87 375.111 79.4547 374.803 78.932C374.495 78.4 374.341 77.8073 374.341 77.154C374.341 76.51 374.495 75.9313 374.803 75.418C375.111 74.8953 375.526 74.48 376.049 74.172C376.571 73.864 377.159 73.71 377.813 73.71C378.457 73.71 379.04 73.864 379.563 74.172C380.095 74.4707 380.515 74.8813 380.823 75.404C381.131 75.9267 381.285 76.51 381.285 77.154C381.285 77.8073 381.131 78.4 380.823 78.932C380.515 79.4547 380.095 79.87 379.563 80.178C379.04 80.486 378.457 80.64 377.813 80.64ZM377.813 79.422C378.233 79.422 378.606 79.324 378.933 79.128C379.259 78.932 379.516 78.666 379.703 78.33C379.889 77.9847 379.983 77.5927 379.983 77.154C379.983 76.7247 379.885 76.342 379.689 76.006C379.502 75.67 379.245 75.4087 378.919 75.222C378.601 75.026 378.233 74.928 377.813 74.928C377.393 74.928 377.019 75.026 376.693 75.222C376.366 75.4087 376.109 75.67 375.923 76.006C375.736 76.342 375.643 76.7247 375.643 77.154C375.643 77.5927 375.736 77.9847 375.923 78.33C376.109 78.666 376.366 78.932 376.693 79.128C377.019 79.324 377.393 79.422 377.813 79.422ZM386.078 80.64C385.574 80.64 385.117 80.5373 384.706 80.332C384.305 80.1173 383.983 79.8233 383.74 79.45C383.498 79.0767 383.362 78.652 383.334 78.176V76.174C383.362 75.6887 383.498 75.264 383.74 74.9C383.992 74.5267 384.319 74.2373 384.72 74.032C385.131 73.8173 385.584 73.71 386.078 73.71C386.685 73.71 387.231 73.864 387.716 74.172C388.211 74.48 388.598 74.8953 388.878 75.418C389.158 75.9407 389.298 76.5287 389.298 77.182C389.298 77.8353 389.158 78.4233 388.878 78.946C388.598 79.4687 388.211 79.884 387.716 80.192C387.231 80.4907 386.685 80.64 386.078 80.64ZM385.868 79.45C386.288 79.45 386.657 79.352 386.974 79.156C387.292 78.96 387.544 78.694 387.73 78.358C387.917 78.0127 388.01 77.616 388.01 77.168C388.01 76.7293 387.917 76.3373 387.73 75.992C387.544 75.6467 387.292 75.3807 386.974 75.194C386.657 74.998 386.293 74.9 385.882 74.9C385.462 74.9 385.094 74.998 384.776 75.194C384.459 75.3807 384.212 75.6467 384.034 75.992C383.857 76.3373 383.768 76.734 383.768 77.182C383.768 77.6207 383.852 78.0127 384.02 78.358C384.198 78.694 384.445 78.96 384.762 79.156C385.089 79.352 385.458 79.45 385.868 79.45ZM382.578 83.286V73.85H383.838V75.6L383.6 77.21L383.838 78.834V83.286H382.578ZM394.409 80.5V71.064H395.669V80.5H394.409ZM392.771 74.998V73.85H397.307V74.998H392.771ZM403.119 80.5V76.622C403.119 76.118 402.961 75.7027 402.643 75.376C402.326 75.0493 401.915 74.886 401.411 74.886C401.075 74.886 400.777 74.9607 400.515 75.11C400.254 75.2593 400.049 75.4647 399.899 75.726C399.75 75.9873 399.675 76.286 399.675 76.622L399.157 76.328C399.157 75.824 399.269 75.376 399.493 74.984C399.717 74.592 400.03 74.284 400.431 74.06C400.833 73.8267 401.285 73.71 401.789 73.71C402.293 73.71 402.737 73.822 403.119 74.046C403.511 74.27 403.819 74.5827 404.043 74.984C404.267 75.3853 404.379 75.8473 404.379 76.37V80.5H403.119ZM398.415 80.5V70.504H399.675V80.5H398.415ZM409.039 80.64C408.377 80.64 407.779 80.4907 407.247 80.192C406.715 79.884 406.295 79.4687 405.987 78.946C405.679 78.4233 405.525 77.8307 405.525 77.168C405.525 76.5147 405.675 75.9267 405.973 75.404C406.281 74.8813 406.692 74.4707 407.205 74.172C407.728 73.864 408.311 73.71 408.955 73.71C409.571 73.71 410.113 73.85 410.579 74.13C411.055 74.41 411.424 74.7973 411.685 75.292C411.956 75.7867 412.091 76.3467 412.091 76.972C412.091 77.0653 412.087 77.168 412.077 77.28C412.068 77.3827 412.049 77.504 412.021 77.644H406.407V76.594H411.349L410.887 77C410.887 76.552 410.808 76.174 410.649 75.866C410.491 75.5487 410.267 75.306 409.977 75.138C409.688 74.9607 409.338 74.872 408.927 74.872C408.498 74.872 408.12 74.9653 407.793 75.152C407.467 75.3387 407.215 75.6 407.037 75.936C406.86 76.272 406.771 76.6687 406.771 77.126C406.771 77.5927 406.865 78.0033 407.051 78.358C407.238 78.7033 407.504 78.974 407.849 79.17C408.195 79.3567 408.591 79.45 409.039 79.45C409.413 79.45 409.753 79.3847 410.061 79.254C410.379 79.1233 410.649 78.9273 410.873 78.666L411.685 79.492C411.368 79.8653 410.976 80.15 410.509 80.346C410.052 80.542 409.562 80.64 409.039 80.64ZM223.437 98.5V91.85H224.697V98.5H223.437ZM224.067 90.52C223.833 90.52 223.642 90.4453 223.493 90.296C223.343 90.1373 223.269 89.9413 223.269 89.708C223.269 89.484 223.343 89.2973 223.493 89.148C223.642 88.9893 223.833 88.91 224.067 88.91C224.3 88.91 224.491 88.9893 224.641 89.148C224.79 89.2973 224.865 89.484 224.865 89.708C224.865 89.9413 224.79 90.1373 224.641 90.296C224.491 90.4453 224.3 90.52 224.067 90.52ZM226.428 98.5V91.85H227.688V98.5H226.428ZM230.922 98.5V94.482C230.922 93.9873 230.768 93.6 230.46 93.32C230.161 93.0307 229.783 92.886 229.326 92.886C229.018 92.886 228.742 92.9513 228.5 93.082C228.257 93.2127 228.061 93.3947 227.912 93.628C227.762 93.8613 227.688 94.1413 227.688 94.468L227.17 94.216C227.17 93.712 227.277 93.2733 227.492 92.9C227.716 92.5267 228.019 92.2373 228.402 92.032C228.784 91.8173 229.214 91.71 229.69 91.71C230.156 91.71 230.576 91.8127 230.95 92.018C231.332 92.2233 231.631 92.5127 231.846 92.886C232.07 93.2593 232.182 93.7027 232.182 94.216V98.5H230.922ZM235.416 98.5V94.482C235.416 93.9873 235.262 93.6 234.954 93.32C234.655 93.0307 234.282 92.886 233.834 92.886C233.526 92.886 233.246 92.9513 232.994 93.082C232.751 93.2127 232.555 93.3947 232.406 93.628C232.256 93.8613 232.182 94.1413 232.182 94.468L231.468 94.216C231.496 93.7027 231.631 93.264 231.874 92.9C232.126 92.5267 232.448 92.2373 232.84 92.032C233.232 91.8173 233.661 91.71 234.128 91.71C234.613 91.71 235.047 91.8127 235.43 92.018C235.812 92.2233 236.116 92.5127 236.34 92.886C236.573 93.2593 236.69 93.7073 236.69 94.23V98.5H235.416ZM241.106 98.64C240.5 98.64 239.949 98.4907 239.454 98.192C238.96 97.884 238.568 97.4687 238.278 96.946C237.998 96.4233 237.858 95.8353 237.858 95.182C237.858 94.5287 237.998 93.9407 238.278 93.418C238.568 92.8953 238.955 92.48 239.44 92.172C239.935 91.864 240.49 91.71 241.106 91.71C241.61 91.71 242.058 91.8173 242.45 92.032C242.852 92.2373 243.174 92.5267 243.416 92.9C243.659 93.264 243.794 93.6887 243.822 94.174V96.176C243.794 96.652 243.659 97.0767 243.416 97.45C243.183 97.8233 242.866 98.1173 242.464 98.332C242.072 98.5373 241.62 98.64 241.106 98.64ZM241.316 97.45C241.942 97.45 242.446 97.24 242.828 96.82C243.211 96.3907 243.402 95.8447 243.402 95.182C243.402 94.7247 243.314 94.328 243.136 93.992C242.968 93.6467 242.726 93.3807 242.408 93.194C242.091 92.998 241.722 92.9 241.302 92.9C240.882 92.9 240.509 92.998 240.182 93.194C239.865 93.39 239.613 93.6607 239.426 94.006C239.249 94.342 239.16 94.7293 239.16 95.168C239.16 95.616 239.249 96.0127 239.426 96.358C239.613 96.694 239.87 96.96 240.196 97.156C240.523 97.352 240.896 97.45 241.316 97.45ZM243.318 98.5V96.708L243.556 95.084L243.318 93.474V91.85H244.592V98.5H243.318ZM249.059 101.426C248.377 101.426 247.771 101.3 247.239 101.048C246.716 100.796 246.296 100.441 245.979 99.984L246.791 99.158C247.061 99.5033 247.383 99.7647 247.757 99.942C248.13 100.129 248.573 100.222 249.087 100.222C249.768 100.222 250.305 100.04 250.697 99.676C251.098 99.3213 251.299 98.8407 251.299 98.234V96.582L251.523 95.084L251.299 93.6V91.85H252.559V98.234C252.559 98.8687 252.409 99.424 252.111 99.9C251.821 100.376 251.411 100.749 250.879 101.02C250.356 101.291 249.749 101.426 249.059 101.426ZM249.059 98.388C248.452 98.388 247.906 98.2433 247.421 97.954C246.945 97.6647 246.567 97.268 246.287 96.764C246.007 96.2507 245.867 95.6767 245.867 95.042C245.867 94.4073 246.007 93.8427 246.287 93.348C246.567 92.844 246.945 92.4473 247.421 92.158C247.906 91.8593 248.452 91.71 249.059 91.71C249.581 91.71 250.043 91.8127 250.445 92.018C250.846 92.2233 251.163 92.5127 251.397 92.886C251.639 93.25 251.77 93.6793 251.789 94.174V95.938C251.761 96.4233 251.625 96.8527 251.383 97.226C251.149 97.59 250.832 97.8747 250.431 98.08C250.029 98.2853 249.572 98.388 249.059 98.388ZM249.311 97.198C249.721 97.198 250.081 97.1093 250.389 96.932C250.706 96.7547 250.949 96.5073 251.117 96.19C251.285 95.8633 251.369 95.4853 251.369 95.056C251.369 94.6267 251.28 94.2533 251.103 93.936C250.935 93.6093 250.697 93.3573 250.389 93.18C250.081 92.9933 249.717 92.9 249.297 92.9C248.877 92.9 248.508 92.9933 248.191 93.18C247.873 93.3573 247.621 93.6093 247.435 93.936C247.257 94.2533 247.169 94.622 247.169 95.042C247.169 95.462 247.257 95.8353 247.435 96.162C247.621 96.4887 247.873 96.7453 248.191 96.932C248.517 97.1093 248.891 97.198 249.311 97.198ZM257.362 98.64C256.699 98.64 256.102 98.4907 255.57 98.192C255.038 97.884 254.618 97.4687 254.31 96.946C254.002 96.4233 253.848 95.8307 253.848 95.168C253.848 94.5147 253.997 93.9267 254.296 93.404C254.604 92.8813 255.015 92.4707 255.528 92.172C256.051 91.864 256.634 91.71 257.278 91.71C257.894 91.71 258.435 91.85 258.902 92.13C259.378 92.41 259.747 92.7973 260.008 93.292C260.279 93.7867 260.414 94.3467 260.414 94.972C260.414 95.0653 260.409 95.168 260.4 95.28C260.391 95.3827 260.372 95.504 260.344 95.644H254.73V94.594H259.672L259.21 95C259.21 94.552 259.131 94.174 258.972 93.866C258.813 93.5487 258.589 93.306 258.3 93.138C258.011 92.9607 257.661 92.872 257.25 92.872C256.821 92.872 256.443 92.9653 256.116 93.152C255.789 93.3387 255.537 93.6 255.36 93.936C255.183 94.272 255.094 94.6687 255.094 95.126C255.094 95.5927 255.187 96.0033 255.374 96.358C255.561 96.7033 255.827 96.974 256.172 97.17C256.517 97.3567 256.914 97.45 257.362 97.45C257.735 97.45 258.076 97.3847 258.384 97.254C258.701 97.1233 258.972 96.9273 259.196 96.666L260.008 97.492C259.691 97.8653 259.299 98.15 258.832 98.346C258.375 98.542 257.885 98.64 257.362 98.64ZM266.618 100.124C266.105 99.6947 265.666 99.1627 265.302 98.528C264.938 97.9027 264.658 97.2167 264.462 96.47C264.266 95.7233 264.168 94.9487 264.168 94.146C264.168 93.3433 264.266 92.5687 264.462 91.822C264.658 91.0753 264.938 90.3893 265.302 89.764C265.666 89.1293 266.105 88.5973 266.618 88.168L267.346 88.826C266.683 89.4047 266.17 90.1513 265.806 91.066C265.451 91.9807 265.274 93.0073 265.274 94.146C265.274 95.2753 265.451 96.2973 265.806 97.212C266.17 98.1267 266.683 98.878 267.346 99.466L266.618 100.124ZM273.016 98.64C272.335 98.64 271.696 98.514 271.098 98.262C270.51 98.0007 269.992 97.6413 269.544 97.184C269.106 96.7267 268.76 96.1947 268.508 95.588C268.256 94.9813 268.13 94.328 268.13 93.628C268.13 92.928 268.256 92.2793 268.508 91.682C268.76 91.0753 269.11 90.5433 269.558 90.086C270.006 89.6287 270.529 89.274 271.126 89.022C271.733 88.77 272.391 88.644 273.1 88.644C273.875 88.644 274.589 88.7933 275.242 89.092C275.896 89.3907 276.442 89.82 276.88 90.38L275.97 91.29C275.662 90.842 275.256 90.5013 274.752 90.268C274.248 90.0253 273.698 89.904 273.1 89.904C272.391 89.904 271.761 90.0627 271.21 90.38C270.669 90.6973 270.244 91.136 269.936 91.696C269.638 92.256 269.488 92.9 269.488 93.628C269.488 94.3653 269.642 95.014 269.95 95.574C270.258 96.134 270.674 96.5727 271.196 96.89C271.719 97.2073 272.316 97.366 272.988 97.366C273.67 97.366 274.258 97.2353 274.752 96.974C275.256 96.7127 275.644 96.33 275.914 95.826C276.185 95.3127 276.32 94.6873 276.32 93.95L277.118 94.524H272.918V93.32H277.678V93.516C277.678 94.6453 277.478 95.5927 277.076 96.358C276.684 97.114 276.134 97.6833 275.424 98.066C274.724 98.4487 273.922 98.64 273.016 98.64ZM279.322 98.5V88.784H280.638V98.5H279.322ZM282.806 98.5V88.784H284.122V98.5H282.806ZM283.702 94.23V93.026H288.77V94.23H283.702ZM283.702 89.988V88.784H289.008V89.988H283.702ZM289.676 100.04L290.544 98.374L290.992 98.262C290.945 98.3647 290.885 98.4487 290.81 98.514C290.745 98.5793 290.661 98.612 290.558 98.612C290.362 98.612 290.18 98.5327 290.012 98.374C289.853 98.206 289.774 98.0007 289.774 97.758C289.774 97.4873 289.863 97.2633 290.04 97.086C290.217 96.8993 290.441 96.806 290.712 96.806C290.955 96.806 291.169 96.8993 291.356 97.086C291.543 97.2633 291.636 97.4873 291.636 97.758C291.636 97.8607 291.613 97.9867 291.566 98.136C291.529 98.276 291.449 98.458 291.328 98.682L290.404 100.432L289.676 100.04ZM297.228 94.72V93.572H299.874C300.238 93.572 300.56 93.4973 300.84 93.348C301.129 93.1987 301.353 92.9887 301.512 92.718C301.68 92.4473 301.764 92.1253 301.764 91.752C301.764 91.3787 301.68 91.0567 301.512 90.786C301.353 90.5153 301.129 90.3053 300.84 90.156C300.56 90.0067 300.238 89.932 299.874 89.932H297.228V88.784H299.958C300.555 88.784 301.087 88.9053 301.554 89.148C302.03 89.3907 302.403 89.736 302.674 90.184C302.954 90.6227 303.094 91.1453 303.094 91.752C303.094 92.3493 302.954 92.872 302.674 93.32C302.403 93.7587 302.03 94.104 301.554 94.356C301.087 94.5987 300.555 94.72 299.958 94.72H297.228ZM296.346 98.5V88.784H297.662V98.5H296.346ZM304.601 98.5V88.784H305.525L305.917 90.31V98.5H304.601ZM311.321 98.5L305.357 90.534L305.525 88.784L311.503 96.736L311.321 98.5ZM311.321 98.5L310.929 97.058V88.784H312.245V98.5H311.321ZM318.81 98.64C318.129 98.64 317.489 98.514 316.892 98.262C316.304 98.0007 315.786 97.6413 315.338 97.184C314.899 96.7267 314.554 96.1947 314.302 95.588C314.05 94.9813 313.924 94.328 313.924 93.628C313.924 92.928 314.05 92.2793 314.302 91.682C314.554 91.0753 314.904 90.5433 315.352 90.086C315.8 89.6287 316.323 89.274 316.92 89.022C317.527 88.77 318.185 88.644 318.894 88.644C319.669 88.644 320.383 88.7933 321.036 89.092C321.689 89.3907 322.235 89.82 322.674 90.38L321.764 91.29C321.456 90.842 321.05 90.5013 320.546 90.268C320.042 90.0253 319.491 89.904 318.894 89.904C318.185 89.904 317.555 90.0627 317.004 90.38C316.463 90.6973 316.038 91.136 315.73 91.696C315.431 92.256 315.282 92.9 315.282 93.628C315.282 94.3653 315.436 95.014 315.744 95.574C316.052 96.134 316.467 96.5727 316.99 96.89C317.513 97.2073 318.11 97.366 318.782 97.366C319.463 97.366 320.051 97.2353 320.546 96.974C321.05 96.7127 321.437 96.33 321.708 95.826C321.979 95.3127 322.114 94.6873 322.114 93.95L322.912 94.524H318.712V93.32H323.472V93.516C323.472 94.6453 323.271 95.5927 322.87 96.358C322.478 97.114 321.927 97.6833 321.218 98.066C320.518 98.4487 319.715 98.64 318.81 98.64ZM334.272 98.5L329.624 93.516C329.26 93.124 328.99 92.7507 328.812 92.396C328.635 92.0413 328.546 91.6493 328.546 91.22C328.546 90.7253 328.663 90.2867 328.896 89.904C329.13 89.512 329.452 89.204 329.862 88.98C330.273 88.7467 330.744 88.63 331.276 88.63C331.668 88.63 332.023 88.6953 332.34 88.826C332.667 88.9473 332.952 89.1107 333.194 89.316C333.446 89.5213 333.656 89.7547 333.824 90.016L332.914 90.842C332.7 90.5433 332.462 90.3053 332.2 90.128C331.948 89.9413 331.64 89.848 331.276 89.848C330.856 89.848 330.506 89.974 330.226 90.226C329.946 90.478 329.806 90.8047 329.806 91.206C329.806 91.542 329.876 91.8267 330.016 92.06C330.156 92.2933 330.366 92.564 330.646 92.872L335.812 98.5H334.272ZM330.786 98.64C330.142 98.64 329.578 98.514 329.092 98.262C328.607 98.01 328.229 97.6647 327.958 97.226C327.697 96.778 327.566 96.2693 327.566 95.7C327.566 95.112 327.725 94.58 328.042 94.104C328.36 93.628 328.822 93.25 329.428 92.97L330.03 93.754C329.657 93.9407 329.363 94.1973 329.148 94.524C328.934 94.8413 328.826 95.224 328.826 95.672C328.826 96.036 328.91 96.3487 329.078 96.61C329.246 96.8713 329.48 97.0767 329.778 97.226C330.086 97.366 330.436 97.436 330.828 97.436C331.323 97.436 331.743 97.3333 332.088 97.128C332.434 96.9227 332.695 96.6613 332.872 96.344L333.698 97.31C333.512 97.562 333.264 97.7907 332.956 97.996C332.658 98.192 332.322 98.3507 331.948 98.472C331.584 98.584 331.197 98.64 330.786 98.64ZM340.653 98.64C340.093 98.64 339.599 98.5327 339.169 98.318C338.749 98.094 338.404 97.7953 338.133 97.422L339.057 96.568C339.235 96.8293 339.454 97.03 339.715 97.17C339.986 97.31 340.285 97.38 340.611 97.38C340.938 97.38 341.227 97.31 341.479 97.17C341.731 97.03 341.927 96.8247 342.067 96.554C342.217 96.274 342.291 95.9333 342.291 95.532V88.784H343.607V95.462C343.607 96.106 343.477 96.666 343.215 97.142C342.963 97.618 342.613 97.9867 342.165 98.248C341.727 98.5093 341.223 98.64 340.653 98.64ZM346.549 94.72V93.572H349.195C349.559 93.572 349.881 93.4973 350.161 93.348C350.45 93.1987 350.674 92.9887 350.833 92.718C351.001 92.4473 351.085 92.1253 351.085 91.752C351.085 91.3787 351.001 91.0567 350.833 90.786C350.674 90.5153 350.45 90.3053 350.161 90.156C349.881 90.0067 349.559 89.932 349.195 89.932H346.549V88.784H349.279C349.876 88.784 350.408 88.9053 350.875 89.148C351.351 89.3907 351.724 89.736 351.995 90.184C352.275 90.6227 352.415 91.1453 352.415 91.752C352.415 92.3493 352.275 92.872 351.995 93.32C351.724 93.7587 351.351 94.104 350.875 94.356C350.408 94.5987 349.876 94.72 349.279 94.72H346.549ZM345.667 98.5V88.784H346.983V98.5H345.667ZM353.922 98.5V88.784H355.238V98.5H353.922ZM354.818 98.5V97.296H360.39V98.5H354.818ZM354.818 94.104V92.956H359.928V94.104H354.818ZM354.818 89.988V88.784H360.32V89.988H354.818ZM366.244 98.64C365.563 98.64 364.924 98.514 364.326 98.262C363.738 98.0007 363.22 97.6413 362.772 97.184C362.334 96.7267 361.988 96.1947 361.736 95.588C361.484 94.9813 361.358 94.328 361.358 93.628C361.358 92.928 361.484 92.2793 361.736 91.682C361.988 91.0753 362.338 90.5433 362.786 90.086C363.234 89.6287 363.757 89.274 364.354 89.022C364.961 88.77 365.619 88.644 366.328 88.644C367.103 88.644 367.817 88.7933 368.47 89.092C369.124 89.3907 369.67 89.82 370.108 90.38L369.198 91.29C368.89 90.842 368.484 90.5013 367.98 90.268C367.476 90.0253 366.926 89.904 366.328 89.904C365.619 89.904 364.989 90.0627 364.438 90.38C363.897 90.6973 363.472 91.136 363.164 91.696C362.866 92.256 362.716 92.9 362.716 93.628C362.716 94.3653 362.87 95.014 363.178 95.574C363.486 96.134 363.902 96.5727 364.424 96.89C364.947 97.2073 365.544 97.366 366.216 97.366C366.898 97.366 367.486 97.2353 367.98 96.974C368.484 96.7127 368.872 96.33 369.142 95.826C369.413 95.3127 369.548 94.6873 369.548 93.95L370.346 94.524H366.146V93.32H370.906V93.516C370.906 94.6453 370.706 95.5927 370.304 96.358C369.912 97.114 369.362 97.6833 368.652 98.066C367.952 98.4487 367.15 98.64 366.244 98.64ZM372.551 100.124L371.823 99.466C372.485 98.878 372.994 98.1267 373.349 97.212C373.703 96.2973 373.881 95.2753 373.881 94.146C373.881 93.0073 373.703 91.9807 373.349 91.066C372.994 90.1513 372.485 89.4047 371.823 88.826L372.551 88.168C373.064 88.5973 373.503 89.1293 373.867 89.764C374.231 90.3893 374.511 91.0753 374.707 91.822C374.903 92.5687 375.001 93.3433 375.001 94.146C375.001 94.9487 374.903 95.7233 374.707 96.47C374.511 97.2167 374.231 97.9027 373.867 98.528C373.503 99.1627 373.064 99.6947 372.551 100.124Z" fill="#7E7E8F"/>
<rect x="0.5" y="0.5" width="597" height="130" rx="15.5" stroke="#C6CBD9" stroke-dasharray="10 10"/>
</svg>
