<svg width="598" height="131" viewBox="0 0 598 131" fill="none" xmlns="http://www.w3.org/2000/svg">
<rect x="0.5" y="0.5" width="597" height="130" rx="15.5" fill="#F2F3F7"/>
<path d="M307.458 43.2083C307.138 43.2083 306.831 43.3356 306.604 43.5622C306.377 43.7888 306.25 44.0962 306.25 44.4167V44.8758L304.462 43.0875C303.83 42.461 302.977 42.1095 302.087 42.1095C301.198 42.1095 300.344 42.461 299.713 43.0875L298.867 43.9333L295.87 40.9367C295.23 40.3272 294.38 39.9873 293.496 39.9873C292.612 39.9873 291.762 40.3272 291.122 40.9367L289.333 42.725V35.9583C289.333 35.6379 289.461 35.3305 289.687 35.1039C289.914 34.8773 290.221 34.75 290.542 34.75H299C299.321 34.75 299.628 34.6227 299.855 34.3961C300.081 34.1695 300.208 33.8621 300.208 33.5417C300.208 33.2212 300.081 32.9138 299.855 32.6872C299.628 32.4606 299.321 32.3333 299 32.3333H290.542C289.58 32.3333 288.658 32.7152 287.978 33.3951C287.299 34.0749 286.917 34.9969 286.917 35.9583V50.4583C286.917 51.4197 287.299 52.3418 287.978 53.0216C288.658 53.7014 289.58 54.0833 290.542 54.0833H305.042C306.003 54.0833 306.925 53.7014 307.605 53.0216C308.285 52.3418 308.667 51.4197 308.667 50.4583V44.4167C308.667 44.0962 308.539 43.7888 308.313 43.5622C308.086 43.3356 307.779 43.2083 307.458 43.2083ZM290.542 51.6667C290.221 51.6667 289.914 51.5394 289.687 51.3128C289.461 51.0861 289.333 50.7788 289.333 50.4583V46.1446L292.838 42.6404C293.015 42.4712 293.251 42.3769 293.496 42.3769C293.741 42.3769 293.977 42.4712 294.155 42.6404L297.985 46.4708L303.181 51.6667H290.542ZM306.25 50.4583C306.248 50.6896 306.172 50.9142 306.033 51.0987L300.583 45.625L301.429 44.7792C301.515 44.6907 301.619 44.6205 301.733 44.5726C301.847 44.5246 301.97 44.4999 302.093 44.4999C302.217 44.4999 302.34 44.5246 302.454 44.5726C302.568 44.6205 302.671 44.6907 302.758 44.7792L306.25 48.2954V50.4583ZM311.941 32.6837L308.316 29.0587C308.201 28.9487 308.066 28.8625 307.918 28.805C307.623 28.6841 307.293 28.6841 306.999 28.805C306.851 28.8625 306.715 28.9487 306.6 29.0587L302.975 32.6837C302.863 32.7964 302.773 32.9302 302.712 33.0774C302.652 33.2246 302.62 33.3823 302.62 33.5417C302.62 33.8634 302.748 34.172 302.975 34.3996C303.203 34.6271 303.512 34.7549 303.833 34.7549C304.155 34.7549 304.464 34.6271 304.691 34.3996L306.25 32.8287V39.5833C306.25 39.9038 306.377 40.2111 306.604 40.4377C306.831 40.6644 307.138 40.7917 307.458 40.7917C307.779 40.7917 308.086 40.6644 308.313 40.4377C308.539 40.2111 308.667 39.9038 308.667 39.5833V32.8287L310.225 34.3996C310.338 34.5128 310.471 34.6027 310.619 34.6641C310.766 34.7254 310.924 34.757 311.083 34.757C311.243 34.757 311.401 34.7254 311.548 34.6641C311.695 34.6027 311.829 34.5128 311.941 34.3996C312.055 34.2872 312.144 34.1536 312.206 34.0064C312.267 33.8591 312.299 33.7012 312.299 33.5417C312.299 33.3821 312.267 33.2242 312.206 33.077C312.144 32.9297 312.055 32.7961 311.941 32.6837Z" fill="#E2E2EA"/>
<path d="M191.143 80.64C190.443 80.64 189.794 80.514 189.197 80.262C188.6 80.0007 188.077 79.6413 187.629 79.184C187.19 78.7267 186.85 78.1947 186.607 77.588C186.364 76.9813 186.243 76.3327 186.243 75.642C186.243 74.942 186.364 74.2887 186.607 73.682C186.85 73.0753 187.19 72.548 187.629 72.1C188.077 71.6427 188.595 71.288 189.183 71.036C189.78 70.7747 190.429 70.644 191.129 70.644C191.894 70.644 192.566 70.7747 193.145 71.036C193.724 71.2973 194.237 71.652 194.685 72.1L193.775 73.01C193.467 72.6647 193.089 72.394 192.641 72.198C192.202 72.002 191.698 71.904 191.129 71.904C190.616 71.904 190.144 71.9973 189.715 72.184C189.286 72.3613 188.912 72.618 188.595 72.954C188.278 73.29 188.03 73.6867 187.853 74.144C187.685 74.6013 187.601 75.1007 187.601 75.642C187.601 76.1833 187.685 76.6827 187.853 77.14C188.03 77.5973 188.278 77.994 188.595 78.33C188.912 78.666 189.286 78.9273 189.715 79.114C190.144 79.2913 190.616 79.38 191.129 79.38C191.736 79.38 192.263 79.282 192.711 79.086C193.159 78.8807 193.537 78.6053 193.845 78.26L194.755 79.156C194.307 79.6227 193.78 79.9867 193.173 80.248C192.576 80.5093 191.899 80.64 191.143 80.64ZM196.022 80.5V70.504H197.282V80.5H196.022ZM199.013 80.5V73.85H200.273V80.5H199.013ZM199.643 72.52C199.41 72.52 199.218 72.4453 199.069 72.296C198.92 72.1373 198.845 71.9413 198.845 71.708C198.845 71.484 198.92 71.2973 199.069 71.148C199.218 70.9893 199.41 70.91 199.643 70.91C199.876 70.91 200.068 70.9893 200.217 71.148C200.366 71.2973 200.441 71.484 200.441 71.708C200.441 71.9413 200.366 72.1373 200.217 72.296C200.068 72.4453 199.876 72.52 199.643 72.52ZM205.042 80.64C204.389 80.64 203.796 80.486 203.264 80.178C202.741 79.87 202.326 79.4547 202.018 78.932C201.719 78.4 201.57 77.812 201.57 77.168C201.57 76.5147 201.719 75.9267 202.018 75.404C202.326 74.8813 202.741 74.4707 203.264 74.172C203.796 73.864 204.389 73.71 205.042 73.71C205.555 73.71 206.031 73.808 206.47 74.004C206.909 74.1907 207.287 74.466 207.604 74.83L206.764 75.67C206.559 75.4273 206.307 75.2453 206.008 75.124C205.719 74.9933 205.397 74.928 205.042 74.928C204.622 74.928 204.249 75.026 203.922 75.222C203.595 75.4087 203.339 75.67 203.152 76.006C202.965 76.342 202.872 76.7293 202.872 77.168C202.872 77.6067 202.965 77.994 203.152 78.33C203.339 78.666 203.595 78.932 203.922 79.128C204.249 79.324 204.622 79.422 205.042 79.422C205.397 79.422 205.719 79.3613 206.008 79.24C206.307 79.1093 206.563 78.9227 206.778 78.68L207.604 79.52C207.296 79.8747 206.918 80.15 206.47 80.346C206.031 80.542 205.555 80.64 205.042 80.64ZM212.984 80.5L209.876 77.098L212.956 73.85H214.482L211.052 77.434L211.108 76.706L214.608 80.5H212.984ZM208.728 80.5V70.504H209.988V80.5H208.728ZM221.188 80.64C220.582 80.64 220.031 80.4907 219.536 80.192C219.042 79.884 218.65 79.4687 218.36 78.946C218.08 78.4233 217.94 77.8353 217.94 77.182C217.94 76.5287 218.08 75.9407 218.36 75.418C218.65 74.8953 219.037 74.48 219.522 74.172C220.017 73.864 220.572 73.71 221.188 73.71C221.692 73.71 222.14 73.8173 222.532 74.032C222.934 74.2373 223.256 74.5267 223.498 74.9C223.741 75.264 223.876 75.6887 223.904 76.174V78.176C223.876 78.652 223.741 79.0767 223.498 79.45C223.265 79.8233 222.948 80.1173 222.546 80.332C222.154 80.5373 221.702 80.64 221.188 80.64ZM221.398 79.45C222.024 79.45 222.528 79.24 222.91 78.82C223.293 78.3907 223.484 77.8447 223.484 77.182C223.484 76.7247 223.396 76.328 223.218 75.992C223.05 75.6467 222.808 75.3807 222.49 75.194C222.173 74.998 221.804 74.9 221.384 74.9C220.964 74.9 220.591 74.998 220.264 75.194C219.947 75.39 219.695 75.6607 219.508 76.006C219.331 76.342 219.242 76.7293 219.242 77.168C219.242 77.616 219.331 78.0127 219.508 78.358C219.695 78.694 219.952 78.96 220.278 79.156C220.605 79.352 220.978 79.45 221.398 79.45ZM223.4 80.5V78.708L223.638 77.084L223.4 75.474V73.85H224.674V80.5H223.4ZM231.087 80.5V76.622C231.087 76.118 230.928 75.7027 230.611 75.376C230.293 75.0493 229.883 74.886 229.379 74.886C229.043 74.886 228.744 74.9607 228.483 75.11C228.221 75.2593 228.016 75.4647 227.867 75.726C227.717 75.9873 227.643 76.286 227.643 76.622L227.125 76.328C227.125 75.824 227.237 75.376 227.461 74.984C227.685 74.592 227.997 74.284 228.399 74.06C228.8 73.8267 229.253 73.71 229.757 73.71C230.261 73.71 230.704 73.836 231.087 74.088C231.479 74.34 231.787 74.6713 232.011 75.082C232.235 75.4833 232.347 75.9127 232.347 76.37V80.5H231.087ZM226.383 80.5V73.85H227.643V80.5H226.383ZM236.741 80.64C236.125 80.64 235.574 80.4907 235.089 80.192C234.603 79.884 234.216 79.4687 233.927 78.946C233.647 78.4233 233.507 77.8353 233.507 77.182C233.507 76.5287 233.647 75.9407 233.927 75.418C234.216 74.8953 234.603 74.48 235.089 74.172C235.574 73.864 236.125 73.71 236.741 73.71C237.235 73.71 237.683 73.8173 238.085 74.032C238.486 74.2373 238.808 74.5267 239.051 74.9C239.303 75.264 239.443 75.6887 239.471 76.174V78.176C239.443 78.652 239.307 79.0767 239.065 79.45C238.822 79.8233 238.5 80.1173 238.099 80.332C237.697 80.5373 237.245 80.64 236.741 80.64ZM236.951 79.45C237.371 79.45 237.735 79.352 238.043 79.156C238.36 78.96 238.607 78.694 238.785 78.358C238.962 78.0127 239.051 77.6207 239.051 77.182C239.051 76.7247 238.957 76.328 238.771 75.992C238.593 75.656 238.346 75.39 238.029 75.194C237.721 74.998 237.357 74.9 236.937 74.9C236.517 74.9 236.148 74.998 235.831 75.194C235.513 75.39 235.261 75.6607 235.075 76.006C234.897 76.342 234.809 76.7293 234.809 77.168C234.809 77.616 234.897 78.0127 235.075 78.358C235.261 78.694 235.513 78.96 235.831 79.156C236.157 79.352 236.531 79.45 236.951 79.45ZM240.241 80.5H238.967V78.708L239.205 77.084L238.967 75.474V70.504H240.241V80.5ZM247.661 80.64C246.896 80.64 246.243 80.5 245.701 80.22C245.16 79.94 244.679 79.534 244.259 79.002L245.155 78.106C245.463 78.5353 245.818 78.862 246.219 79.086C246.621 79.3007 247.115 79.408 247.703 79.408C248.282 79.408 248.744 79.282 249.089 79.03C249.444 78.778 249.621 78.4327 249.621 77.994C249.621 77.63 249.537 77.336 249.369 77.112C249.201 76.888 248.973 76.706 248.683 76.566C248.403 76.4167 248.095 76.286 247.759 76.174C247.423 76.0527 247.087 75.9267 246.751 75.796C246.415 75.656 246.107 75.488 245.827 75.292C245.547 75.0867 245.319 74.8207 245.141 74.494C244.973 74.1673 244.889 73.7567 244.889 73.262C244.889 72.7113 245.02 72.2447 245.281 71.862C245.552 71.47 245.916 71.1713 246.373 70.966C246.84 70.7513 247.363 70.644 247.941 70.644C248.576 70.644 249.145 70.77 249.649 71.022C250.153 71.2647 250.564 71.5867 250.881 71.988L249.985 72.884C249.696 72.548 249.383 72.296 249.047 72.128C248.721 71.96 248.343 71.876 247.913 71.876C247.391 71.876 246.975 71.9927 246.667 72.226C246.359 72.45 246.205 72.7673 246.205 73.178C246.205 73.5047 246.289 73.7707 246.457 73.976C246.635 74.172 246.863 74.34 247.143 74.48C247.423 74.62 247.731 74.7507 248.067 74.872C248.413 74.984 248.753 75.11 249.089 75.25C249.425 75.39 249.733 75.5673 250.013 75.782C250.293 75.9967 250.517 76.2767 250.685 76.622C250.863 76.958 250.951 77.3827 250.951 77.896C250.951 78.7547 250.653 79.4267 250.055 79.912C249.467 80.3973 248.669 80.64 247.661 80.64ZM255.359 80.64C254.696 80.64 254.099 80.4907 253.567 80.192C253.035 79.884 252.615 79.4687 252.307 78.946C251.999 78.4233 251.845 77.8307 251.845 77.168C251.845 76.5147 251.994 75.9267 252.293 75.404C252.601 74.8813 253.012 74.4707 253.525 74.172C254.048 73.864 254.631 73.71 255.275 73.71C255.891 73.71 256.432 73.85 256.899 74.13C257.375 74.41 257.744 74.7973 258.005 75.292C258.276 75.7867 258.411 76.3467 258.411 76.972C258.411 77.0653 258.406 77.168 258.397 77.28C258.388 77.3827 258.369 77.504 258.341 77.644H252.727V76.594H257.669L257.207 77C257.207 76.552 257.128 76.174 256.969 75.866C256.81 75.5487 256.586 75.306 256.297 75.138C256.008 74.9607 255.658 74.872 255.247 74.872C254.818 74.872 254.44 74.9653 254.113 75.152C253.786 75.3387 253.534 75.6 253.357 75.936C253.18 76.272 253.091 76.6687 253.091 77.126C253.091 77.5927 253.184 78.0033 253.371 78.358C253.558 78.7033 253.824 78.974 254.169 79.17C254.514 79.3567 254.911 79.45 255.359 79.45C255.732 79.45 256.073 79.3847 256.381 79.254C256.698 79.1233 256.969 78.9273 257.193 78.666L258.005 79.492C257.688 79.8653 257.296 80.15 256.829 80.346C256.372 80.542 255.882 80.64 255.359 80.64ZM259.659 80.5V70.504H260.919V80.5H259.659ZM265.717 80.64C265.054 80.64 264.457 80.4907 263.925 80.192C263.393 79.884 262.973 79.4687 262.665 78.946C262.357 78.4233 262.203 77.8307 262.203 77.168C262.203 76.5147 262.352 75.9267 262.651 75.404C262.959 74.8813 263.369 74.4707 263.883 74.172C264.405 73.864 264.989 73.71 265.633 73.71C266.249 73.71 266.79 73.85 267.257 74.13C267.733 74.41 268.101 74.7973 268.363 75.292C268.633 75.7867 268.769 76.3467 268.769 76.972C268.769 77.0653 268.764 77.168 268.755 77.28C268.745 77.3827 268.727 77.504 268.699 77.644H263.085V76.594H268.027L267.565 77C267.565 76.552 267.485 76.174 267.327 75.866C267.168 75.5487 266.944 75.306 266.655 75.138C266.365 74.9607 266.015 74.872 265.605 74.872C265.175 74.872 264.797 74.9653 264.471 75.152C264.144 75.3387 263.892 75.6 263.715 75.936C263.537 76.272 263.449 76.6687 263.449 77.126C263.449 77.5927 263.542 78.0033 263.729 78.358C263.915 78.7033 264.181 78.974 264.527 79.17C264.872 79.3567 265.269 79.45 265.717 79.45C266.09 79.45 266.431 79.3847 266.739 79.254C267.056 79.1233 267.327 78.9273 267.551 78.666L268.363 79.492C268.045 79.8653 267.653 80.15 267.187 80.346C266.729 80.542 266.239 80.64 265.717 80.64ZM273.054 80.64C272.401 80.64 271.808 80.486 271.276 80.178C270.754 79.87 270.338 79.4547 270.03 78.932C269.732 78.4 269.582 77.812 269.582 77.168C269.582 76.5147 269.732 75.9267 270.03 75.404C270.338 74.8813 270.754 74.4707 271.276 74.172C271.808 73.864 272.401 73.71 273.054 73.71C273.568 73.71 274.044 73.808 274.482 74.004C274.921 74.1907 275.299 74.466 275.616 74.83L274.776 75.67C274.571 75.4273 274.319 75.2453 274.02 75.124C273.731 74.9933 273.409 74.928 273.054 74.928C272.634 74.928 272.261 75.026 271.934 75.222C271.608 75.4087 271.351 75.67 271.164 76.006C270.978 76.342 270.884 76.7293 270.884 77.168C270.884 77.6067 270.978 77.994 271.164 78.33C271.351 78.666 271.608 78.932 271.934 79.128C272.261 79.324 272.634 79.422 273.054 79.422C273.409 79.422 273.731 79.3613 274.02 79.24C274.319 79.1093 274.576 78.9227 274.79 78.68L275.616 79.52C275.308 79.8747 274.93 80.15 274.482 80.346C274.044 80.542 273.568 80.64 273.054 80.64ZM277.68 80.5V71.064H278.94V80.5H277.68ZM276.042 74.998V73.85H280.578V74.998H276.042ZM287.51 80.64C286.857 80.64 286.269 80.486 285.746 80.178C285.224 79.87 284.808 79.4547 284.5 78.932C284.192 78.4 284.038 77.8073 284.038 77.154C284.038 76.51 284.192 75.9313 284.5 75.418C284.808 74.8953 285.224 74.48 285.746 74.172C286.269 73.864 286.857 73.71 287.51 73.71C288.154 73.71 288.738 73.864 289.26 74.172C289.792 74.4707 290.212 74.8813 290.52 75.404C290.828 75.9267 290.982 76.51 290.982 77.154C290.982 77.8073 290.828 78.4 290.52 78.932C290.212 79.4547 289.792 79.87 289.26 80.178C288.738 80.486 288.154 80.64 287.51 80.64ZM287.51 79.422C287.93 79.422 288.304 79.324 288.63 79.128C288.957 78.932 289.214 78.666 289.4 78.33C289.587 77.9847 289.68 77.5927 289.68 77.154C289.68 76.7247 289.582 76.342 289.386 76.006C289.2 75.67 288.943 75.4087 288.616 75.222C288.299 75.026 287.93 74.928 287.51 74.928C287.09 74.928 286.717 75.026 286.39 75.222C286.064 75.4087 285.807 75.67 285.62 76.006C285.434 76.342 285.34 76.7247 285.34 77.154C285.34 77.5927 285.434 77.9847 285.62 78.33C285.807 78.666 286.064 78.932 286.39 79.128C286.717 79.324 287.09 79.422 287.51 79.422ZM292.276 80.5V73.85H293.536V80.5H292.276ZM293.536 76.706L293.06 76.496C293.06 75.6467 293.256 74.97 293.648 74.466C294.04 73.962 294.605 73.71 295.342 73.71C295.678 73.71 295.981 73.7707 296.252 73.892C296.523 74.004 296.775 74.1953 297.008 74.466L296.182 75.32C296.042 75.1707 295.888 75.0633 295.72 74.998C295.552 74.9327 295.356 74.9 295.132 74.9C294.665 74.9 294.283 75.0493 293.984 75.348C293.685 75.6467 293.536 76.0993 293.536 76.706ZM301.893 80.5V79.296H304.595C305.314 79.296 305.944 79.142 306.485 78.834C307.027 78.5167 307.447 78.0827 307.745 77.532C308.053 76.9813 308.207 76.3467 308.207 75.628C308.207 74.9187 308.053 74.2887 307.745 73.738C307.437 73.1873 307.013 72.758 306.471 72.45C305.93 72.142 305.305 71.988 304.595 71.988H301.907V70.784H304.623C305.333 70.784 305.986 70.9053 306.583 71.148C307.19 71.3907 307.713 71.7313 308.151 72.17C308.599 72.6087 308.945 73.122 309.187 73.71C309.439 74.298 309.565 74.942 309.565 75.642C309.565 76.3327 309.439 76.9767 309.187 77.574C308.945 78.162 308.604 78.6753 308.165 79.114C307.727 79.5527 307.204 79.8933 306.597 80.136C306 80.3787 305.351 80.5 304.651 80.5H301.893ZM301.025 80.5V70.784H302.341V80.5H301.025ZM311.039 80.5V73.85H312.299V80.5H311.039ZM312.299 76.706L311.823 76.496C311.823 75.6467 312.019 74.97 312.411 74.466C312.803 73.962 313.367 73.71 314.105 73.71C314.441 73.71 314.744 73.7707 315.015 73.892C315.285 74.004 315.537 74.1953 315.771 74.466L314.945 75.32C314.805 75.1707 314.651 75.0633 314.483 74.998C314.315 74.9327 314.119 74.9 313.895 74.9C313.428 74.9 313.045 75.0493 312.747 75.348C312.448 75.6467 312.299 76.0993 312.299 76.706ZM319.141 80.64C318.534 80.64 317.984 80.4907 317.489 80.192C316.994 79.884 316.602 79.4687 316.313 78.946C316.033 78.4233 315.893 77.8353 315.893 77.182C315.893 76.5287 316.033 75.9407 316.313 75.418C316.602 74.8953 316.99 74.48 317.475 74.172C317.97 73.864 318.525 73.71 319.141 73.71C319.645 73.71 320.093 73.8173 320.485 74.032C320.886 74.2373 321.208 74.5267 321.451 74.9C321.694 75.264 321.829 75.6887 321.857 76.174V78.176C321.829 78.652 321.694 79.0767 321.451 79.45C321.218 79.8233 320.9 80.1173 320.499 80.332C320.107 80.5373 319.654 80.64 319.141 80.64ZM319.351 79.45C319.976 79.45 320.48 79.24 320.863 78.82C321.246 78.3907 321.437 77.8447 321.437 77.182C321.437 76.7247 321.348 76.328 321.171 75.992C321.003 75.6467 320.76 75.3807 320.443 75.194C320.126 74.998 319.757 74.9 319.337 74.9C318.917 74.9 318.544 74.998 318.217 75.194C317.9 75.39 317.648 75.6607 317.461 76.006C317.284 76.342 317.195 76.7293 317.195 77.168C317.195 77.616 317.284 78.0127 317.461 78.358C317.648 78.694 317.904 78.96 318.231 79.156C318.558 79.352 318.931 79.45 319.351 79.45ZM321.353 80.5V78.708L321.591 77.084L321.353 75.474V73.85H322.627V80.5H321.353ZM327.094 83.426C326.412 83.426 325.806 83.3 325.274 83.048C324.751 82.796 324.331 82.4413 324.014 81.984L324.826 81.158C325.096 81.5033 325.418 81.7647 325.792 81.942C326.165 82.1287 326.608 82.222 327.122 82.222C327.803 82.222 328.34 82.04 328.732 81.676C329.133 81.3213 329.334 80.8407 329.334 80.234V78.582L329.558 77.084L329.334 75.6V73.85H330.594V80.234C330.594 80.8687 330.444 81.424 330.146 81.9C329.856 82.376 329.446 82.7493 328.914 83.02C328.391 83.2907 327.784 83.426 327.094 83.426ZM327.094 80.388C326.487 80.388 325.941 80.2433 325.456 79.954C324.98 79.6647 324.602 79.268 324.322 78.764C324.042 78.2507 323.902 77.6767 323.902 77.042C323.902 76.4073 324.042 75.8427 324.322 75.348C324.602 74.844 324.98 74.4473 325.456 74.158C325.941 73.8593 326.487 73.71 327.094 73.71C327.616 73.71 328.078 73.8127 328.48 74.018C328.881 74.2233 329.198 74.5127 329.432 74.886C329.674 75.25 329.805 75.6793 329.824 76.174V77.938C329.796 78.4233 329.66 78.8527 329.418 79.226C329.184 79.59 328.867 79.8747 328.466 80.08C328.064 80.2853 327.607 80.388 327.094 80.388ZM327.346 79.198C327.756 79.198 328.116 79.1093 328.424 78.932C328.741 78.7547 328.984 78.5073 329.152 78.19C329.32 77.8633 329.404 77.4853 329.404 77.056C329.404 76.6267 329.315 76.2533 329.138 75.936C328.97 75.6093 328.732 75.3573 328.424 75.18C328.116 74.9933 327.752 74.9 327.332 74.9C326.912 74.9 326.543 74.9933 326.226 75.18C325.908 75.3573 325.656 75.6093 325.47 75.936C325.292 76.2533 325.204 76.622 325.204 77.042C325.204 77.462 325.292 77.8353 325.47 78.162C325.656 78.4887 325.908 78.7453 326.226 78.932C326.552 79.1093 326.926 79.198 327.346 79.198ZM337.931 80.64C337.324 80.64 336.774 80.4907 336.279 80.192C335.784 79.884 335.392 79.4687 335.103 78.946C334.823 78.4233 334.683 77.8353 334.683 77.182C334.683 76.5287 334.823 75.9407 335.103 75.418C335.392 74.8953 335.78 74.48 336.265 74.172C336.76 73.864 337.315 73.71 337.931 73.71C338.435 73.71 338.883 73.8173 339.275 74.032C339.676 74.2373 339.998 74.5267 340.241 74.9C340.484 75.264 340.619 75.6887 340.647 76.174V78.176C340.619 78.652 340.484 79.0767 340.241 79.45C340.008 79.8233 339.69 80.1173 339.289 80.332C338.897 80.5373 338.444 80.64 337.931 80.64ZM338.141 79.45C338.766 79.45 339.27 79.24 339.653 78.82C340.036 78.3907 340.227 77.8447 340.227 77.182C340.227 76.7247 340.138 76.328 339.961 75.992C339.793 75.6467 339.55 75.3807 339.233 75.194C338.916 74.998 338.547 74.9 338.127 74.9C337.707 74.9 337.334 74.998 337.007 75.194C336.69 75.39 336.438 75.6607 336.251 76.006C336.074 76.342 335.985 76.7293 335.985 77.168C335.985 77.616 336.074 78.0127 336.251 78.358C336.438 78.694 336.694 78.96 337.021 79.156C337.348 79.352 337.721 79.45 338.141 79.45ZM340.143 80.5V78.708L340.381 77.084L340.143 75.474V73.85H341.417V80.5H340.143ZM347.829 80.5V76.622C347.829 76.118 347.671 75.7027 347.353 75.376C347.036 75.0493 346.625 74.886 346.121 74.886C345.785 74.886 345.487 74.9607 345.225 75.11C344.964 75.2593 344.759 75.4647 344.609 75.726C344.46 75.9873 344.385 76.286 344.385 76.622L343.867 76.328C343.867 75.824 343.979 75.376 344.203 74.984C344.427 74.592 344.74 74.284 345.141 74.06C345.543 73.8267 345.995 73.71 346.499 73.71C347.003 73.71 347.447 73.836 347.829 74.088C348.221 74.34 348.529 74.6713 348.753 75.082C348.977 75.4833 349.089 75.9127 349.089 76.37V80.5H347.829ZM343.125 80.5V73.85H344.385V80.5H343.125ZM353.483 80.64C352.867 80.64 352.317 80.4907 351.831 80.192C351.346 79.884 350.959 79.4687 350.669 78.946C350.389 78.4233 350.249 77.8353 350.249 77.182C350.249 76.5287 350.389 75.9407 350.669 75.418C350.959 74.8953 351.346 74.48 351.831 74.172C352.317 73.864 352.867 73.71 353.483 73.71C353.978 73.71 354.426 73.8173 354.827 74.032C355.229 74.2373 355.551 74.5267 355.793 74.9C356.045 75.264 356.185 75.6887 356.213 76.174V78.176C356.185 78.652 356.05 79.0767 355.807 79.45C355.565 79.8233 355.243 80.1173 354.841 80.332C354.44 80.5373 353.987 80.64 353.483 80.64ZM353.693 79.45C354.113 79.45 354.477 79.352 354.785 79.156C355.103 78.96 355.35 78.694 355.527 78.358C355.705 78.0127 355.793 77.6207 355.793 77.182C355.793 76.7247 355.7 76.328 355.513 75.992C355.336 75.656 355.089 75.39 354.771 75.194C354.463 74.998 354.099 74.9 353.679 74.9C353.259 74.9 352.891 74.998 352.573 75.194C352.256 75.39 352.004 75.6607 351.817 76.006C351.64 76.342 351.551 76.7293 351.551 77.168C351.551 77.616 351.64 78.0127 351.817 78.358C352.004 78.694 352.256 78.96 352.573 79.156C352.9 79.352 353.273 79.45 353.693 79.45ZM356.983 80.5H355.709V78.708L355.947 77.084L355.709 75.474V70.504H356.983V80.5ZM364.292 80.64C363.676 80.64 363.125 80.4907 362.64 80.192C362.155 79.884 361.767 79.4687 361.478 78.946C361.198 78.4233 361.058 77.8353 361.058 77.182C361.058 76.5287 361.198 75.9407 361.478 75.418C361.767 74.8953 362.155 74.48 362.64 74.172C363.125 73.864 363.676 73.71 364.292 73.71C364.787 73.71 365.235 73.8173 365.636 74.032C366.037 74.2373 366.359 74.5267 366.602 74.9C366.854 75.264 366.994 75.6887 367.022 76.174V78.176C366.994 78.652 366.859 79.0767 366.616 79.45C366.373 79.8233 366.051 80.1173 365.65 80.332C365.249 80.5373 364.796 80.64 364.292 80.64ZM364.502 79.45C364.922 79.45 365.286 79.352 365.594 79.156C365.911 78.96 366.159 78.694 366.336 78.358C366.513 78.0127 366.602 77.6207 366.602 77.182C366.602 76.7247 366.509 76.328 366.322 75.992C366.145 75.656 365.897 75.39 365.58 75.194C365.272 74.998 364.908 74.9 364.488 74.9C364.068 74.9 363.699 74.998 363.382 75.194C363.065 75.39 362.813 75.6607 362.626 76.006C362.449 76.342 362.36 76.7293 362.36 77.168C362.36 77.616 362.449 78.0127 362.626 78.358C362.813 78.694 363.065 78.96 363.382 79.156C363.709 79.352 364.082 79.45 364.502 79.45ZM367.792 80.5H366.518V78.708L366.756 77.084L366.518 75.474V70.504H367.792V80.5ZM369.5 80.5V73.85H370.76V80.5H369.5ZM370.76 76.706L370.284 76.496C370.284 75.6467 370.48 74.97 370.872 74.466C371.264 73.962 371.829 73.71 372.566 73.71C372.902 73.71 373.206 73.7707 373.476 73.892C373.747 74.004 373.999 74.1953 374.232 74.466L373.406 75.32C373.266 75.1707 373.112 75.0633 372.944 74.998C372.776 74.9327 372.58 74.9 372.356 74.9C371.89 74.9 371.507 75.0493 371.208 75.348C370.91 75.6467 370.76 76.0993 370.76 76.706ZM377.813 80.64C377.159 80.64 376.571 80.486 376.049 80.178C375.526 79.87 375.111 79.4547 374.803 78.932C374.495 78.4 374.341 77.8073 374.341 77.154C374.341 76.51 374.495 75.9313 374.803 75.418C375.111 74.8953 375.526 74.48 376.049 74.172C376.571 73.864 377.159 73.71 377.813 73.71C378.457 73.71 379.04 73.864 379.563 74.172C380.095 74.4707 380.515 74.8813 380.823 75.404C381.131 75.9267 381.285 76.51 381.285 77.154C381.285 77.8073 381.131 78.4 380.823 78.932C380.515 79.4547 380.095 79.87 379.563 80.178C379.04 80.486 378.457 80.64 377.813 80.64ZM377.813 79.422C378.233 79.422 378.606 79.324 378.933 79.128C379.259 78.932 379.516 78.666 379.703 78.33C379.889 77.9847 379.983 77.5927 379.983 77.154C379.983 76.7247 379.885 76.342 379.689 76.006C379.502 75.67 379.245 75.4087 378.919 75.222C378.601 75.026 378.233 74.928 377.813 74.928C377.393 74.928 377.019 75.026 376.693 75.222C376.366 75.4087 376.109 75.67 375.923 76.006C375.736 76.342 375.643 76.7247 375.643 77.154C375.643 77.5927 375.736 77.9847 375.923 78.33C376.109 78.666 376.366 78.932 376.693 79.128C377.019 79.324 377.393 79.422 377.813 79.422ZM386.078 80.64C385.574 80.64 385.117 80.5373 384.706 80.332C384.305 80.1173 383.983 79.8233 383.74 79.45C383.498 79.0767 383.362 78.652 383.334 78.176V76.174C383.362 75.6887 383.498 75.264 383.74 74.9C383.992 74.5267 384.319 74.2373 384.72 74.032C385.131 73.8173 385.584 73.71 386.078 73.71C386.685 73.71 387.231 73.864 387.716 74.172C388.211 74.48 388.598 74.8953 388.878 75.418C389.158 75.9407 389.298 76.5287 389.298 77.182C389.298 77.8353 389.158 78.4233 388.878 78.946C388.598 79.4687 388.211 79.884 387.716 80.192C387.231 80.4907 386.685 80.64 386.078 80.64ZM385.868 79.45C386.288 79.45 386.657 79.352 386.974 79.156C387.292 78.96 387.544 78.694 387.73 78.358C387.917 78.0127 388.01 77.616 388.01 77.168C388.01 76.7293 387.917 76.3373 387.73 75.992C387.544 75.6467 387.292 75.3807 386.974 75.194C386.657 74.998 386.293 74.9 385.882 74.9C385.462 74.9 385.094 74.998 384.776 75.194C384.459 75.3807 384.212 75.6467 384.034 75.992C383.857 76.3373 383.768 76.734 383.768 77.182C383.768 77.6207 383.852 78.0127 384.02 78.358C384.198 78.694 384.445 78.96 384.762 79.156C385.089 79.352 385.458 79.45 385.868 79.45ZM382.578 83.286V73.85H383.838V75.6L383.6 77.21L383.838 78.834V83.286H382.578ZM394.409 80.5V71.064H395.669V80.5H394.409ZM392.771 74.998V73.85H397.307V74.998H392.771ZM403.119 80.5V76.622C403.119 76.118 402.961 75.7027 402.643 75.376C402.326 75.0493 401.915 74.886 401.411 74.886C401.075 74.886 400.777 74.9607 400.515 75.11C400.254 75.2593 400.049 75.4647 399.899 75.726C399.75 75.9873 399.675 76.286 399.675 76.622L399.157 76.328C399.157 75.824 399.269 75.376 399.493 74.984C399.717 74.592 400.03 74.284 400.431 74.06C400.833 73.8267 401.285 73.71 401.789 73.71C402.293 73.71 402.737 73.822 403.119 74.046C403.511 74.27 403.819 74.5827 404.043 74.984C404.267 75.3853 404.379 75.8473 404.379 76.37V80.5H403.119ZM398.415 80.5V70.504H399.675V80.5H398.415ZM409.039 80.64C408.377 80.64 407.779 80.4907 407.247 80.192C406.715 79.884 406.295 79.4687 405.987 78.946C405.679 78.4233 405.525 77.8307 405.525 77.168C405.525 76.5147 405.675 75.9267 405.973 75.404C406.281 74.8813 406.692 74.4707 407.205 74.172C407.728 73.864 408.311 73.71 408.955 73.71C409.571 73.71 410.113 73.85 410.579 74.13C411.055 74.41 411.424 74.7973 411.685 75.292C411.956 75.7867 412.091 76.3467 412.091 76.972C412.091 77.0653 412.087 77.168 412.077 77.28C412.068 77.3827 412.049 77.504 412.021 77.644H406.407V76.594H411.349L410.887 77C410.887 76.552 410.808 76.174 410.649 75.866C410.491 75.5487 410.267 75.306 409.977 75.138C409.688 74.9607 409.338 74.872 408.927 74.872C408.498 74.872 408.12 74.9653 407.793 75.152C407.467 75.3387 407.215 75.6 407.037 75.936C406.86 76.272 406.771 76.6687 406.771 77.126C406.771 77.5927 406.865 78.0033 407.051 78.358C407.238 78.7033 407.504 78.974 407.849 79.17C408.195 79.3567 408.591 79.45 409.039 79.45C409.413 79.45 409.753 79.3847 410.061 79.254C410.379 79.1233 410.649 78.9273 410.873 78.666L411.685 79.492C411.368 79.8653 410.976 80.15 410.509 80.346C410.052 80.542 409.562 80.64 409.039 80.64ZM206.026 98.5V88.504H207.286V98.5H206.026ZM212.041 98.64C211.388 98.64 210.8 98.486 210.277 98.178C209.755 97.87 209.339 97.4547 209.031 96.932C208.723 96.4 208.569 95.8073 208.569 95.154C208.569 94.51 208.723 93.9313 209.031 93.418C209.339 92.8953 209.755 92.48 210.277 92.172C210.8 91.864 211.388 91.71 212.041 91.71C212.685 91.71 213.269 91.864 213.791 92.172C214.323 92.4707 214.743 92.8813 215.051 93.404C215.359 93.9267 215.513 94.51 215.513 95.154C215.513 95.8073 215.359 96.4 215.051 96.932C214.743 97.4547 214.323 97.87 213.791 98.178C213.269 98.486 212.685 98.64 212.041 98.64ZM212.041 97.422C212.461 97.422 212.835 97.324 213.161 97.128C213.488 96.932 213.745 96.666 213.931 96.33C214.118 95.9847 214.211 95.5927 214.211 95.154C214.211 94.7247 214.113 94.342 213.917 94.006C213.731 93.67 213.474 93.4087 213.147 93.222C212.83 93.026 212.461 92.928 212.041 92.928C211.621 92.928 211.248 93.026 210.921 93.222C210.595 93.4087 210.338 93.67 210.151 94.006C209.965 94.342 209.871 94.7247 209.871 95.154C209.871 95.5927 209.965 95.9847 210.151 96.33C210.338 96.666 210.595 96.932 210.921 97.128C211.248 97.324 211.621 97.422 212.041 97.422ZM219.565 101.426C218.884 101.426 218.277 101.3 217.745 101.048C217.222 100.796 216.802 100.441 216.485 99.984L217.297 99.158C217.568 99.5033 217.89 99.7647 218.263 99.942C218.636 100.129 219.08 100.222 219.593 100.222C220.274 100.222 220.811 100.04 221.203 99.676C221.604 99.3213 221.805 98.8407 221.805 98.234V96.582L222.029 95.084L221.805 93.6V91.85H223.065V98.234C223.065 98.8687 222.916 99.424 222.617 99.9C222.328 100.376 221.917 100.749 221.385 101.02C220.862 101.291 220.256 101.426 219.565 101.426ZM219.565 98.388C218.958 98.388 218.412 98.2433 217.927 97.954C217.451 97.6647 217.073 97.268 216.793 96.764C216.513 96.2507 216.373 95.6767 216.373 95.042C216.373 94.4073 216.513 93.8427 216.793 93.348C217.073 92.844 217.451 92.4473 217.927 92.158C218.412 91.8593 218.958 91.71 219.565 91.71C220.088 91.71 220.55 91.8127 220.951 92.018C221.352 92.2233 221.67 92.5127 221.903 92.886C222.146 93.25 222.276 93.6793 222.295 94.174V95.938C222.267 96.4233 222.132 96.8527 221.889 97.226C221.656 97.59 221.338 97.8747 220.937 98.08C220.536 98.2853 220.078 98.388 219.565 98.388ZM219.817 97.198C220.228 97.198 220.587 97.1093 220.895 96.932C221.212 96.7547 221.455 96.5073 221.623 96.19C221.791 95.8633 221.875 95.4853 221.875 95.056C221.875 94.6267 221.786 94.2533 221.609 93.936C221.441 93.6093 221.203 93.3573 220.895 93.18C220.587 92.9933 220.223 92.9 219.803 92.9C219.383 92.9 219.014 92.9933 218.697 93.18C218.38 93.3573 218.128 93.6093 217.941 93.936C217.764 94.2533 217.675 94.622 217.675 95.042C217.675 95.462 217.764 95.8353 217.941 96.162C218.128 96.4887 218.38 96.7453 218.697 96.932C219.024 97.1093 219.397 97.198 219.817 97.198ZM227.827 98.64C227.173 98.64 226.585 98.486 226.063 98.178C225.54 97.87 225.125 97.4547 224.817 96.932C224.509 96.4 224.355 95.8073 224.355 95.154C224.355 94.51 224.509 93.9313 224.817 93.418C225.125 92.8953 225.54 92.48 226.063 92.172C226.585 91.864 227.173 91.71 227.827 91.71C228.471 91.71 229.054 91.864 229.577 92.172C230.109 92.4707 230.529 92.8813 230.837 93.404C231.145 93.9267 231.299 94.51 231.299 95.154C231.299 95.8073 231.145 96.4 230.837 96.932C230.529 97.4547 230.109 97.87 229.577 98.178C229.054 98.486 228.471 98.64 227.827 98.64ZM227.827 97.422C228.247 97.422 228.62 97.324 228.947 97.128C229.273 96.932 229.53 96.666 229.717 96.33C229.903 95.9847 229.997 95.5927 229.997 95.154C229.997 94.7247 229.899 94.342 229.703 94.006C229.516 93.67 229.259 93.4087 228.933 93.222C228.615 93.026 228.247 92.928 227.827 92.928C227.407 92.928 227.033 93.026 226.707 93.222C226.38 93.4087 226.123 93.67 225.937 94.006C225.75 94.342 225.657 94.7247 225.657 95.154C225.657 95.5927 225.75 95.9847 225.937 96.33C226.123 96.666 226.38 96.932 226.707 97.128C227.033 97.324 227.407 97.422 227.827 97.422ZM235.392 98.5V91.85H236.652V98.5H235.392ZM236.022 90.52C235.789 90.52 235.598 90.4453 235.448 90.296C235.299 90.1373 235.224 89.9413 235.224 89.708C235.224 89.484 235.299 89.2973 235.448 89.148C235.598 88.9893 235.789 88.91 236.022 88.91C236.256 88.91 236.447 88.9893 236.596 89.148C236.746 89.2973 236.82 89.484 236.82 89.708C236.82 89.9413 236.746 90.1373 236.596 90.296C236.447 90.4453 236.256 90.52 236.022 90.52ZM238.383 98.5V91.85H239.643V98.5H238.383ZM242.877 98.5V94.482C242.877 93.9873 242.723 93.6 242.415 93.32C242.117 93.0307 241.739 92.886 241.281 92.886C240.973 92.886 240.698 92.9513 240.455 93.082C240.213 93.2127 240.017 93.3947 239.867 93.628C239.718 93.8613 239.643 94.1413 239.643 94.468L239.125 94.216C239.125 93.712 239.233 93.2733 239.447 92.9C239.671 92.5267 239.975 92.2373 240.357 92.032C240.74 91.8173 241.169 91.71 241.645 91.71C242.112 91.71 242.532 91.8127 242.905 92.018C243.288 92.2233 243.587 92.5127 243.801 92.886C244.025 93.2593 244.137 93.7027 244.137 94.216V98.5H242.877ZM247.371 98.5V94.482C247.371 93.9873 247.217 93.6 246.909 93.32C246.611 93.0307 246.237 92.886 245.789 92.886C245.481 92.886 245.201 92.9513 244.949 93.082C244.707 93.2127 244.511 93.3947 244.361 93.628C244.212 93.8613 244.137 94.1413 244.137 94.468L243.423 94.216C243.451 93.7027 243.587 93.264 243.829 92.9C244.081 92.5267 244.403 92.2373 244.795 92.032C245.187 91.8173 245.617 91.71 246.083 91.71C246.569 91.71 247.003 91.8127 247.385 92.018C247.768 92.2233 248.071 92.5127 248.295 92.886C248.529 93.2593 248.645 93.7073 248.645 94.23V98.5H247.371ZM253.062 98.64C252.455 98.64 251.904 98.4907 251.41 98.192C250.915 97.884 250.523 97.4687 250.234 96.946C249.954 96.4233 249.814 95.8353 249.814 95.182C249.814 94.5287 249.954 93.9407 250.234 93.418C250.523 92.8953 250.91 92.48 251.396 92.172C251.89 91.864 252.446 91.71 253.062 91.71C253.566 91.71 254.014 91.8173 254.406 92.032C254.807 92.2373 255.129 92.5267 255.372 92.9C255.614 93.264 255.75 93.6887 255.778 94.174V96.176C255.75 96.652 255.614 97.0767 255.372 97.45C255.138 97.8233 254.821 98.1173 254.42 98.332C254.028 98.5373 253.575 98.64 253.062 98.64ZM253.272 97.45C253.897 97.45 254.401 97.24 254.784 96.82C255.166 96.3907 255.358 95.8447 255.358 95.182C255.358 94.7247 255.269 94.328 255.092 93.992C254.924 93.6467 254.681 93.3807 254.364 93.194C254.046 92.998 253.678 92.9 253.258 92.9C252.838 92.9 252.464 92.998 252.138 93.194C251.82 93.39 251.568 93.6607 251.382 94.006C251.204 94.342 251.116 94.7293 251.116 95.168C251.116 95.616 251.204 96.0127 251.382 96.358C251.568 96.694 251.825 96.96 252.152 97.156C252.478 97.352 252.852 97.45 253.272 97.45ZM255.274 98.5V96.708L255.512 95.084L255.274 93.474V91.85H256.548V98.5H255.274ZM261.014 101.426C260.333 101.426 259.726 101.3 259.194 101.048C258.672 100.796 258.252 100.441 257.934 99.984L258.746 99.158C259.017 99.5033 259.339 99.7647 259.712 99.942C260.086 100.129 260.529 100.222 261.042 100.222C261.724 100.222 262.26 100.04 262.652 99.676C263.054 99.3213 263.254 98.8407 263.254 98.234V96.582L263.478 95.084L263.254 93.6V91.85H264.514V98.234C264.514 98.8687 264.365 99.424 264.066 99.9C263.777 100.376 263.366 100.749 262.834 101.02C262.312 101.291 261.705 101.426 261.014 101.426ZM261.014 98.388C260.408 98.388 259.862 98.2433 259.376 97.954C258.9 97.6647 258.522 97.268 258.242 96.764C257.962 96.2507 257.822 95.6767 257.822 95.042C257.822 94.4073 257.962 93.8427 258.242 93.348C258.522 92.844 258.9 92.4473 259.376 92.158C259.862 91.8593 260.408 91.71 261.014 91.71C261.537 91.71 261.999 91.8127 262.4 92.018C262.802 92.2233 263.119 92.5127 263.352 92.886C263.595 93.25 263.726 93.6793 263.744 94.174V95.938C263.716 96.4233 263.581 96.8527 263.338 97.226C263.105 97.59 262.788 97.8747 262.386 98.08C261.985 98.2853 261.528 98.388 261.014 98.388ZM261.266 97.198C261.677 97.198 262.036 97.1093 262.344 96.932C262.662 96.7547 262.904 96.5073 263.072 96.19C263.24 95.8633 263.324 95.4853 263.324 95.056C263.324 94.6267 263.236 94.2533 263.058 93.936C262.89 93.6093 262.652 93.3573 262.344 93.18C262.036 92.9933 261.672 92.9 261.252 92.9C260.832 92.9 260.464 92.9933 260.146 93.18C259.829 93.3573 259.577 93.6093 259.39 93.936C259.213 94.2533 259.124 94.622 259.124 95.042C259.124 95.462 259.213 95.8353 259.39 96.162C259.577 96.4887 259.829 96.7453 260.146 96.932C260.473 97.1093 260.846 97.198 261.266 97.198ZM269.318 98.64C268.655 98.64 268.058 98.4907 267.526 98.192C266.994 97.884 266.574 97.4687 266.266 96.946C265.958 96.4233 265.804 95.8307 265.804 95.168C265.804 94.5147 265.953 93.9267 266.252 93.404C266.56 92.8813 266.97 92.4707 267.484 92.172C268.006 91.864 268.59 91.71 269.234 91.71C269.85 91.71 270.391 91.85 270.858 92.13C271.334 92.41 271.702 92.7973 271.964 93.292C272.234 93.7867 272.37 94.3467 272.37 94.972C272.37 95.0653 272.365 95.168 272.356 95.28C272.346 95.3827 272.328 95.504 272.3 95.644H266.686V94.594H271.628L271.166 95C271.166 94.552 271.086 94.174 270.928 93.866C270.769 93.5487 270.545 93.306 270.256 93.138C269.966 92.9607 269.616 92.872 269.206 92.872C268.776 92.872 268.398 92.9653 268.072 93.152C267.745 93.3387 267.493 93.6 267.316 93.936C267.138 94.272 267.05 94.6687 267.05 95.126C267.05 95.5927 267.143 96.0033 267.33 96.358C267.516 96.7033 267.782 96.974 268.128 97.17C268.473 97.3567 268.87 97.45 269.318 97.45C269.691 97.45 270.032 97.3847 270.34 97.254C270.657 97.1233 270.928 96.9273 271.152 96.666L271.964 97.492C271.646 97.8653 271.254 98.15 270.788 98.346C270.33 98.542 269.84 98.64 269.318 98.64ZM275.787 100.124C275.274 99.6947 274.835 99.1627 274.471 98.528C274.107 97.9027 273.827 97.2167 273.631 96.47C273.435 95.7233 273.337 94.9487 273.337 94.146C273.337 93.3433 273.435 92.5687 273.631 91.822C273.827 91.0753 274.107 90.3893 274.471 89.764C274.835 89.1293 275.274 88.5973 275.787 88.168L276.515 88.826C275.853 89.4047 275.339 90.1513 274.975 91.066C274.621 91.9807 274.443 93.0073 274.443 94.146C274.443 95.2753 274.621 96.2973 274.975 97.212C275.339 98.1267 275.853 98.878 276.515 99.466L275.787 100.124ZM283.442 98.64C282.677 98.64 282.023 98.5 281.482 98.22C280.941 97.94 280.46 97.534 280.04 97.002L280.936 96.106C281.244 96.5353 281.599 96.862 282 97.086C282.401 97.3007 282.896 97.408 283.484 97.408C284.063 97.408 284.525 97.282 284.87 97.03C285.225 96.778 285.402 96.4327 285.402 95.994C285.402 95.63 285.318 95.336 285.15 95.112C284.982 94.888 284.753 94.706 284.464 94.566C284.184 94.4167 283.876 94.286 283.54 94.174C283.204 94.0527 282.868 93.9267 282.532 93.796C282.196 93.656 281.888 93.488 281.608 93.292C281.328 93.0867 281.099 92.8207 280.922 92.494C280.754 92.1673 280.67 91.7567 280.67 91.262C280.67 90.7113 280.801 90.2447 281.062 89.862C281.333 89.47 281.697 89.1713 282.154 88.966C282.621 88.7513 283.143 88.644 283.722 88.644C284.357 88.644 284.926 88.77 285.43 89.022C285.934 89.2647 286.345 89.5867 286.662 89.988L285.766 90.884C285.477 90.548 285.164 90.296 284.828 90.128C284.501 89.96 284.123 89.876 283.694 89.876C283.171 89.876 282.756 89.9927 282.448 90.226C282.14 90.45 281.986 90.7673 281.986 91.178C281.986 91.5047 282.07 91.7707 282.238 91.976C282.415 92.172 282.644 92.34 282.924 92.48C283.204 92.62 283.512 92.7507 283.848 92.872C284.193 92.984 284.534 93.11 284.87 93.25C285.206 93.39 285.514 93.5673 285.794 93.782C286.074 93.9967 286.298 94.2767 286.466 94.622C286.643 94.958 286.732 95.3827 286.732 95.896C286.732 96.7547 286.433 97.4267 285.836 97.912C285.248 98.3973 284.45 98.64 283.442 98.64ZM291.325 98.5L287.433 88.784H288.861L292.067 97.002H291.549L294.783 88.784H296.197L292.277 98.5H291.325ZM301.509 98.64C300.828 98.64 300.188 98.514 299.591 98.262C299.003 98.0007 298.485 97.6413 298.037 97.184C297.598 96.7267 297.253 96.1947 297.001 95.588C296.749 94.9813 296.623 94.328 296.623 93.628C296.623 92.928 296.749 92.2793 297.001 91.682C297.253 91.0753 297.603 90.5433 298.051 90.086C298.499 89.6287 299.022 89.274 299.619 89.022C300.226 88.77 300.884 88.644 301.593 88.644C302.368 88.644 303.082 88.7933 303.735 89.092C304.388 89.3907 304.934 89.82 305.373 90.38L304.463 91.29C304.155 90.842 303.749 90.5013 303.245 90.268C302.741 90.0253 302.19 89.904 301.593 89.904C300.884 89.904 300.254 90.0627 299.703 90.38C299.162 90.6973 298.737 91.136 298.429 91.696C298.13 92.256 297.981 92.9 297.981 93.628C297.981 94.3653 298.135 95.014 298.443 95.574C298.751 96.134 299.166 96.5727 299.689 96.89C300.212 97.2073 300.809 97.366 301.481 97.366C302.162 97.366 302.75 97.2353 303.245 96.974C303.749 96.7127 304.136 96.33 304.407 95.826C304.678 95.3127 304.813 94.6873 304.813 93.95L305.611 94.524H301.411V93.32H306.171V93.516C306.171 94.6453 305.97 95.5927 305.569 96.358C305.177 97.114 304.626 97.6833 303.917 98.066C303.217 98.4487 302.414 98.64 301.509 98.64ZM307.073 100.04L307.941 98.374L308.389 98.262C308.342 98.3647 308.282 98.4487 308.207 98.514C308.142 98.5793 308.058 98.612 307.955 98.612C307.759 98.612 307.577 98.5327 307.409 98.374C307.25 98.206 307.171 98.0007 307.171 97.758C307.171 97.4873 307.26 97.2633 307.437 97.086C307.614 96.8993 307.838 96.806 308.109 96.806C308.352 96.806 308.566 96.8993 308.753 97.086C308.94 97.2633 309.033 97.4873 309.033 97.758C309.033 97.8607 309.01 97.9867 308.963 98.136C308.926 98.276 308.846 98.458 308.725 98.682L307.801 100.432L307.073 100.04ZM314.625 94.72V93.572H317.271C317.635 93.572 317.957 93.4973 318.237 93.348C318.526 93.1987 318.75 92.9887 318.909 92.718C319.077 92.4473 319.161 92.1253 319.161 91.752C319.161 91.3787 319.077 91.0567 318.909 90.786C318.75 90.5153 318.526 90.3053 318.237 90.156C317.957 90.0067 317.635 89.932 317.271 89.932H314.625V88.784H317.355C317.952 88.784 318.484 88.9053 318.951 89.148C319.427 89.3907 319.8 89.736 320.071 90.184C320.351 90.6227 320.491 91.1453 320.491 91.752C320.491 92.3493 320.351 92.872 320.071 93.32C319.8 93.7587 319.427 94.104 318.951 94.356C318.484 94.5987 317.952 94.72 317.355 94.72H314.625ZM313.743 98.5V88.784H315.059V98.5H313.743ZM321.998 98.5V88.784H322.922L323.314 90.31V98.5H321.998ZM328.718 98.5L322.754 90.534L322.922 88.784L328.9 96.736L328.718 98.5ZM328.718 98.5L328.326 97.058V88.784H329.642V98.5H328.718ZM336.207 98.64C335.526 98.64 334.886 98.514 334.289 98.262C333.701 98.0007 333.183 97.6413 332.735 97.184C332.296 96.7267 331.951 96.1947 331.699 95.588C331.447 94.9813 331.321 94.328 331.321 93.628C331.321 92.928 331.447 92.2793 331.699 91.682C331.951 91.0753 332.301 90.5433 332.749 90.086C333.197 89.6287 333.72 89.274 334.317 89.022C334.924 88.77 335.582 88.644 336.291 88.644C337.066 88.644 337.78 88.7933 338.433 89.092C339.086 89.3907 339.632 89.82 340.071 90.38L339.161 91.29C338.853 90.842 338.447 90.5013 337.943 90.268C337.439 90.0253 336.888 89.904 336.291 89.904C335.582 89.904 334.952 90.0627 334.401 90.38C333.86 90.6973 333.435 91.136 333.127 91.696C332.828 92.256 332.679 92.9 332.679 93.628C332.679 94.3653 332.833 95.014 333.141 95.574C333.449 96.134 333.864 96.5727 334.387 96.89C334.91 97.2073 335.507 97.366 336.179 97.366C336.86 97.366 337.448 97.2353 337.943 96.974C338.447 96.7127 338.834 96.33 339.105 95.826C339.376 95.3127 339.511 94.6873 339.511 93.95L340.309 94.524H336.109V93.32H340.869V93.516C340.869 94.6453 340.668 95.5927 340.267 96.358C339.875 97.114 339.324 97.6833 338.615 98.066C337.915 98.4487 337.112 98.64 336.207 98.64ZM351.669 98.5L347.021 93.516C346.657 93.124 346.387 92.7507 346.209 92.396C346.032 92.0413 345.943 91.6493 345.943 91.22C345.943 90.7253 346.06 90.2867 346.293 89.904C346.527 89.512 346.849 89.204 347.259 88.98C347.67 88.7467 348.141 88.63 348.673 88.63C349.065 88.63 349.42 88.6953 349.737 88.826C350.064 88.9473 350.349 89.1107 350.591 89.316C350.843 89.5213 351.053 89.7547 351.221 90.016L350.311 90.842C350.097 90.5433 349.859 90.3053 349.597 90.128C349.345 89.9413 349.037 89.848 348.673 89.848C348.253 89.848 347.903 89.974 347.623 90.226C347.343 90.478 347.203 90.8047 347.203 91.206C347.203 91.542 347.273 91.8267 347.413 92.06C347.553 92.2933 347.763 92.564 348.043 92.872L353.209 98.5H351.669ZM348.183 98.64C347.539 98.64 346.975 98.514 346.489 98.262C346.004 98.01 345.626 97.6647 345.355 97.226C345.094 96.778 344.963 96.2693 344.963 95.7C344.963 95.112 345.122 94.58 345.439 94.104C345.757 93.628 346.219 93.25 346.825 92.97L347.427 93.754C347.054 93.9407 346.76 94.1973 346.545 94.524C346.331 94.8413 346.223 95.224 346.223 95.672C346.223 96.036 346.307 96.3487 346.475 96.61C346.643 96.8713 346.877 97.0767 347.175 97.226C347.483 97.366 347.833 97.436 348.225 97.436C348.72 97.436 349.14 97.3333 349.485 97.128C349.831 96.9227 350.092 96.6613 350.269 96.344L351.095 97.31C350.909 97.562 350.661 97.7907 350.353 97.996C350.055 98.192 349.719 98.3507 349.345 98.472C348.981 98.584 348.594 98.64 348.183 98.64ZM358.05 98.64C357.49 98.64 356.995 98.5327 356.566 98.318C356.146 98.094 355.801 97.7953 355.53 97.422L356.454 96.568C356.631 96.8293 356.851 97.03 357.112 97.17C357.383 97.31 357.681 97.38 358.008 97.38C358.335 97.38 358.624 97.31 358.876 97.17C359.128 97.03 359.324 96.8247 359.464 96.554C359.613 96.274 359.688 95.9333 359.688 95.532V88.784H361.004V95.462C361.004 96.106 360.873 96.666 360.612 97.142C360.36 97.618 360.01 97.9867 359.562 98.248C359.123 98.5093 358.619 98.64 358.05 98.64ZM363.946 94.72V93.572H366.592C366.956 93.572 367.278 93.4973 367.558 93.348C367.847 93.1987 368.071 92.9887 368.23 92.718C368.398 92.4473 368.482 92.1253 368.482 91.752C368.482 91.3787 368.398 91.0567 368.23 90.786C368.071 90.5153 367.847 90.3053 367.558 90.156C367.278 90.0067 366.956 89.932 366.592 89.932H363.946V88.784H366.676C367.273 88.784 367.805 88.9053 368.272 89.148C368.748 89.3907 369.121 89.736 369.392 90.184C369.672 90.6227 369.812 91.1453 369.812 91.752C369.812 92.3493 369.672 92.872 369.392 93.32C369.121 93.7587 368.748 94.104 368.272 94.356C367.805 94.5987 367.273 94.72 366.676 94.72H363.946ZM363.064 98.5V88.784H364.38V98.5H363.064ZM371.319 98.5V88.784H372.635V98.5H371.319ZM372.215 98.5V97.296H377.787V98.5H372.215ZM372.215 94.104V92.956H377.325V94.104H372.215ZM372.215 89.988V88.784H377.717V89.988H372.215ZM383.641 98.64C382.96 98.64 382.321 98.514 381.723 98.262C381.135 98.0007 380.617 97.6413 380.169 97.184C379.731 96.7267 379.385 96.1947 379.133 95.588C378.881 94.9813 378.755 94.328 378.755 93.628C378.755 92.928 378.881 92.2793 379.133 91.682C379.385 91.0753 379.735 90.5433 380.183 90.086C380.631 89.6287 381.154 89.274 381.751 89.022C382.358 88.77 383.016 88.644 383.725 88.644C384.5 88.644 385.214 88.7933 385.867 89.092C386.521 89.3907 387.067 89.82 387.505 90.38L386.595 91.29C386.287 90.842 385.881 90.5013 385.377 90.268C384.873 90.0253 384.323 89.904 383.725 89.904C383.016 89.904 382.386 90.0627 381.835 90.38C381.294 90.6973 380.869 91.136 380.561 91.696C380.263 92.256 380.113 92.9 380.113 93.628C380.113 94.3653 380.267 95.014 380.575 95.574C380.883 96.134 381.299 96.5727 381.821 96.89C382.344 97.2073 382.941 97.366 383.613 97.366C384.295 97.366 384.883 97.2353 385.377 96.974C385.881 96.7127 386.269 96.33 386.539 95.826C386.81 95.3127 386.945 94.6873 386.945 93.95L387.743 94.524H383.543V93.32H388.303V93.516C388.303 94.6453 388.103 95.5927 387.701 96.358C387.309 97.114 386.759 97.6833 386.049 98.066C385.349 98.4487 384.547 98.64 383.641 98.64ZM389.947 100.124L389.219 99.466C389.882 98.878 390.391 98.1267 390.745 97.212C391.1 96.2973 391.277 95.2753 391.277 94.146C391.277 93.0073 391.1 91.9807 390.745 91.066C390.391 90.1513 389.882 89.4047 389.219 88.826L389.947 88.168C390.461 88.5973 390.899 89.1293 391.263 89.764C391.627 90.3893 391.907 91.0753 392.103 91.822C392.299 92.5687 392.397 93.3433 392.397 94.146C392.397 94.9487 392.299 95.7233 392.103 96.47C391.907 97.2167 391.627 97.9027 391.263 98.528C390.899 99.1627 390.461 99.6947 389.947 100.124Z" fill="#7E7E8F"/>
<rect x="0.5" y="0.5" width="597" height="130" rx="15.5" stroke="#C6CBD9" stroke-dasharray="10 10"/>
</svg>
