<svg width="119" height="56" viewBox="0 0 119 56" fill="none" xmlns="http://www.w3.org/2000/svg">
<path d="M11.7441 29.0645C10.6617 29.0645 9.59259 28.9193 8.53666 28.6289C7.50713 28.3385 6.5568 27.9425 5.68565 27.441C4.81451 26.913 4.06216 26.2795 3.4286 25.5403L6.5172 22.4121C7.17715 23.1513 7.9427 23.7056 8.81385 24.0752C9.68499 24.4448 10.6485 24.6296 11.7045 24.6296C12.5492 24.6296 13.1828 24.5108 13.6051 24.2732C14.0539 24.0356 14.2783 23.6792 14.2783 23.2041C14.2783 22.6761 14.0407 22.2669 13.5655 21.9765C13.1168 21.6862 12.5228 21.4486 11.7836 21.2638C11.0445 21.0526 10.2657 20.8282 9.4474 20.5906C8.65546 20.3267 7.88991 19.9967 7.15076 19.6007C6.41161 19.1783 5.80445 18.6108 5.32928 17.898C4.88051 17.1589 4.65612 16.2085 4.65612 15.047C4.65612 13.8327 4.9465 12.7768 5.52726 11.8792C6.13442 10.9817 6.99237 10.2821 8.10109 9.78055C9.20982 9.27898 10.5165 9.0282 12.0212 9.0282C13.6051 9.0282 15.0306 9.30538 16.2977 9.85974C17.5913 10.4141 18.6604 11.2457 19.5051 12.3544L16.3769 15.4826C15.7962 14.7698 15.1362 14.2551 14.3971 13.9383C13.6843 13.6215 12.9056 13.4631 12.0608 13.4631C11.2953 13.4631 10.7013 13.5819 10.2789 13.8195C9.88297 14.0571 9.68499 14.387 9.68499 14.8094C9.68499 15.2846 9.90937 15.6542 10.3581 15.9181C10.8333 16.1821 11.4405 16.4197 12.1796 16.6309C12.9188 16.8157 13.6843 17.0401 14.4763 17.3041C15.2946 17.5416 16.0602 17.8848 16.7729 18.3336C17.5121 18.7824 18.106 19.3763 18.5548 20.1155C19.03 20.8546 19.2675 21.805 19.2675 22.9665C19.2675 24.8407 18.5944 26.3322 17.2481 27.441C15.9018 28.5233 14.0671 29.0645 11.7441 29.0645Z" fill="#07070C"/>
<path d="M30.8455 29.0249C28.9185 29.0249 27.1762 28.5893 25.6187 27.7182C24.0876 26.8206 22.8601 25.6195 21.9361 24.1148C21.0386 22.5837 20.5898 20.881 20.5898 19.0067C20.5898 17.1325 21.0386 15.4562 21.9361 13.9779C22.8337 12.4732 24.0612 11.2853 25.6187 10.4141C27.1762 9.51657 28.9053 9.0678 30.8059 9.0678C32.7594 9.0678 34.5017 9.51657 36.0328 10.4141C37.5903 11.2853 38.8178 12.4732 39.7154 13.9779C40.6129 15.4562 41.0617 17.1325 41.0617 19.0067C41.0617 20.881 40.6129 22.5837 39.7154 24.1148C38.8178 25.6195 37.5903 26.8206 36.0328 27.7182C34.5017 28.5893 32.7726 29.0249 30.8455 29.0249ZM30.8059 24.194C31.7827 24.194 32.6406 23.9828 33.3798 23.5604C34.1453 23.1117 34.7261 22.5045 35.1221 21.739C35.5444 20.947 35.7556 20.0495 35.7556 19.0463C35.7556 18.0432 35.5444 17.1589 35.1221 16.3933C34.6997 15.6278 34.1189 15.0338 33.3798 14.6114C32.6406 14.1627 31.7827 13.9383 30.8059 13.9383C29.8556 13.9383 29.0109 14.1627 28.2717 14.6114C27.5326 15.0338 26.9518 15.6278 26.5294 16.3933C26.1071 17.1589 25.8959 18.0432 25.8959 19.0463C25.8959 20.0495 26.1071 20.947 26.5294 21.739C26.9518 22.5045 27.5326 23.1117 28.2717 23.5604C29.0109 23.9828 29.8556 24.194 30.8059 24.194Z" fill="#07070C"/>
<path d="M43.4927 28.6289V0H48.6799V28.6289H43.4927Z" fill="#07070C"/>
<path d="M60.3662 29.0249C58.6239 29.0249 57.0532 28.5893 55.6541 27.7182C54.255 26.847 53.1595 25.6591 52.3675 24.1544C51.5756 22.6497 51.1796 20.9602 51.1796 19.0859C51.1796 17.1853 51.5756 15.4826 52.3675 13.9779C53.1595 12.4732 54.255 11.2853 55.6541 10.4141C57.0532 9.54297 58.6239 9.10739 60.3662 9.10739C61.7389 9.10739 62.9664 9.38458 64.0487 9.93894C65.1311 10.4933 65.989 11.272 66.6226 12.2752C67.2825 13.2519 67.6389 14.3606 67.6917 15.6014V22.4913C67.6389 23.7584 67.2825 24.8803 66.6226 25.8571C65.989 26.8338 65.1311 27.6126 64.0487 28.1933C62.9664 28.7477 61.7389 29.0249 60.3662 29.0249ZM61.3165 24.2336C62.7684 24.2336 63.9431 23.7584 64.8407 22.8081C65.7382 21.8313 66.187 20.5774 66.187 19.0463C66.187 18.0432 65.9758 17.1589 65.5534 16.3933C65.1575 15.6014 64.5899 14.9942 63.8508 14.5718C63.138 14.1231 62.2933 13.8987 61.3165 13.8987C60.3662 13.8987 59.5214 14.1231 58.7823 14.5718C58.0695 14.9942 57.502 15.6014 57.0796 16.3933C56.6836 17.1589 56.4856 18.0432 56.4856 19.0463C56.4856 20.0759 56.6836 20.9866 57.0796 21.7786C57.502 22.5441 58.0695 23.1513 58.7823 23.6C59.5214 24.0224 60.3662 24.2336 61.3165 24.2336ZM65.9098 28.6289V23.4812L66.7414 18.8087L65.9098 14.2155V9.50337H71.0575V28.6289H65.9098Z" fill="#07070C"/>
<path d="M87.6071 28.6289V17.6604C87.6071 16.5253 87.2507 15.6014 86.538 14.8886C85.8252 14.1759 84.9013 13.8195 83.7662 13.8195C83.027 13.8195 82.3671 13.9779 81.7863 14.2947C81.2055 14.6114 80.7436 15.0602 80.4004 15.641C80.0836 16.2217 79.9252 16.8949 79.9252 17.6604L77.9057 16.6309C77.9057 15.1262 78.2225 13.8195 78.8561 12.7108C79.516 11.5756 80.4136 10.6913 81.5487 10.0577C82.7102 9.42417 84.0169 9.10739 85.4688 9.10739C86.868 9.10739 88.1219 9.46377 89.2306 10.1765C90.3393 10.8629 91.2105 11.7736 91.844 12.9087C92.4776 14.0175 92.7944 15.2186 92.7944 16.5121V28.6289H87.6071ZM74.738 28.6289V9.50337H79.9252V28.6289H74.738Z" fill="#07070C"/>
<path d="M104.063 29.0249C102.321 29.0249 100.75 28.5893 99.3509 27.7182C97.9518 26.847 96.8563 25.6591 96.0643 24.1544C95.2724 22.6497 94.8764 20.9602 94.8764 19.0859C94.8764 17.1853 95.2724 15.4826 96.0643 13.9779C96.8563 12.4732 97.9518 11.2853 99.3509 10.4141C100.75 9.54297 102.321 9.10739 104.063 9.10739C105.436 9.10739 106.663 9.38458 107.746 9.93894C108.828 10.4933 109.686 11.272 110.319 12.2752C110.979 13.2519 111.336 14.3606 111.389 15.6014V22.4913C111.336 23.7584 110.979 24.8803 110.319 25.8571C109.686 26.8338 108.828 27.6126 107.746 28.1933C106.663 28.7477 105.436 29.0249 104.063 29.0249ZM105.013 24.2336C106.465 24.2336 107.64 23.7584 108.537 22.8081C109.435 21.8313 109.884 20.5774 109.884 19.0463C109.884 18.0432 109.673 17.1589 109.25 16.3933C108.854 15.6014 108.287 14.9942 107.548 14.5718C106.835 14.1231 105.99 13.8987 105.013 13.8987C104.063 13.8987 103.218 14.1231 102.479 14.5718C101.766 14.9942 101.199 15.6014 100.776 16.3933C100.38 17.1589 100.182 18.0432 100.182 19.0463C100.182 20.0759 100.38 20.9866 100.776 21.7786C101.199 22.5441 101.766 23.1513 102.479 23.6C103.218 24.0224 104.063 24.2336 105.013 24.2336ZM109.607 28.6289V23.4812L110.438 18.8087L109.607 14.2155V9.50337H114.754V28.6289H109.607Z" fill="#07070C"/>
<path d="M10.3572 55.4651L0 31.9792H7.00202L14.4417 51.332H10.9893L18.4776 31.9792H25.2365L14.9279 55.4651H10.3572Z" fill="#07070C"/>
<path d="M27.0596 55.4651V31.9792H33.4782V55.4651H27.0596Z" fill="#07070C"/>
<path d="M46.0771 56C44.748 56 43.4352 55.8217 42.1385 55.4651C40.8742 55.1086 39.7072 54.6223 38.6375 54.0064C37.5677 53.3581 36.6438 52.5801 35.8658 51.6724L39.6586 47.831C40.469 48.7387 41.4091 49.4194 42.4789 49.8733C43.5486 50.3271 44.7318 50.554 46.0285 50.554C47.0658 50.554 47.8438 50.4081 48.3625 50.1164C48.9136 49.8246 49.1891 49.387 49.1891 48.8035C49.1891 48.1552 48.8974 47.6527 48.3139 47.2961C47.7628 46.9395 47.0334 46.6478 46.1258 46.4209C45.2181 46.1615 44.2618 45.886 43.2569 45.5942C42.2844 45.2701 41.3443 44.8649 40.4366 44.3786C39.5289 43.8599 38.7834 43.163 38.1999 42.2877C37.6488 41.3801 37.3732 40.2131 37.3732 38.7867C37.3732 37.2955 37.7298 35.9989 38.443 34.8967C39.1886 33.7945 40.2421 32.9355 41.6036 32.3196C42.9651 31.7037 44.5697 31.3957 46.4175 31.3957C48.3625 31.3957 50.113 31.7361 51.669 32.4168C53.2574 33.0976 54.5703 34.1187 55.6077 35.4802L51.7663 39.3216C51.0531 38.4463 50.2427 37.8142 49.335 37.4252C48.4598 37.0362 47.5035 36.8417 46.4661 36.8417C45.526 36.8417 44.7967 36.9876 44.278 37.2793C43.7917 37.5711 43.5486 37.9763 43.5486 38.495C43.5486 39.0785 43.8242 39.5323 44.3752 39.8565C44.9587 40.1806 45.7043 40.4724 46.612 40.7317C47.5197 40.9586 48.4598 41.2342 49.4323 41.5583C50.4372 41.8501 51.3773 42.2715 52.2525 42.8226C53.1602 43.3737 53.8896 44.1031 54.4407 45.0107C55.0242 45.9184 55.3159 47.0854 55.3159 48.5117C55.3159 50.8133 54.4893 52.6449 52.836 54.0064C51.1828 55.3355 48.9298 56 46.0771 56Z" fill="#07070C"/>
<path d="M58.4957 55.4651V31.9792H64.9142V55.4651H58.4957Z" fill="#07070C"/>
<path d="M80.4793 55.9514C78.1129 55.9514 75.9734 55.4165 74.0608 54.3468C72.1806 53.2446 70.6732 51.7696 69.5386 49.9219C68.4364 48.0417 67.8854 45.9508 67.8854 43.6492C67.8854 41.3476 68.4364 39.2892 69.5386 37.4738C70.6408 35.6261 72.1482 34.1673 74.0608 33.0976C75.9734 31.9954 78.0966 31.4443 80.4307 31.4443C82.8295 31.4443 84.969 31.9954 86.8492 33.0976C88.7618 34.1673 90.2691 35.6261 91.3713 37.4738C92.4735 39.2892 93.0246 41.3476 93.0246 43.6492C93.0246 45.9508 92.4735 48.0417 91.3713 49.9219C90.2691 51.7696 88.7618 53.2446 86.8492 54.3468C84.969 55.4165 82.8457 55.9514 80.4793 55.9514ZM80.4307 50.0191C81.6301 50.0191 82.6836 49.7598 83.5913 49.2411C84.5314 48.69 85.2445 47.9445 85.7308 47.0044C86.2495 46.0319 86.5088 44.9297 86.5088 43.6979C86.5088 42.466 86.2495 41.3801 85.7308 40.44C85.2121 39.4999 84.499 38.7705 83.5913 38.2518C82.6836 37.7008 81.6301 37.4252 80.4307 37.4252C79.2637 37.4252 78.2263 37.7008 77.3186 38.2518C76.411 38.7705 75.6978 39.4999 75.1791 40.44C74.6605 41.3801 74.4011 42.466 74.4011 43.6979C74.4011 44.9297 74.6605 46.0319 75.1791 47.0044C75.6978 47.9445 76.411 48.69 77.3186 49.2411C78.2263 49.7598 79.2637 50.0191 80.4307 50.0191Z" fill="#07070C"/>
<path d="M111.813 55.4651V41.996C111.813 40.6021 111.375 39.4675 110.5 38.5922C109.625 37.717 108.49 37.2793 107.096 37.2793C106.189 37.2793 105.378 37.4738 104.665 37.8628C103.952 38.2518 103.385 38.8029 102.963 39.5161C102.574 40.2293 102.38 41.0559 102.38 41.996L99.8998 40.7317C99.8998 38.884 100.289 37.2793 101.067 35.9178C101.877 34.5239 102.979 33.4379 104.373 32.6599C105.8 31.8819 107.404 31.4929 109.187 31.4929C110.905 31.4929 112.445 31.9306 113.807 32.8058C115.168 33.6487 116.238 34.767 117.016 36.161C117.794 37.5225 118.183 38.9974 118.183 40.5858V55.4651H111.813ZM96.0098 55.4651V31.9792H102.38V55.4651H96.0098Z" fill="#07070C"/>
</svg>
